<svg width="483" height="483" viewBox="0 0 483 483" fill="none" xmlns="http://www.w3.org/2000/svg">
<path d="M467.547 347.152C470.26 349.865 470.26 354.266 467.547 356.978C464.835 359.691 460.434 359.691 457.713 356.978C456.454 355.718 455.782 354.089 455.698 352.435H437.172C437.096 352.871 436.894 353.291 436.559 353.627C435.694 354.492 434.291 354.492 433.426 353.627C433.09 353.291 432.889 352.871 432.813 352.435H381.887C381.811 352.871 381.61 353.291 381.274 353.636C381.24 353.661 381.207 353.686 381.181 353.711L393.333 372.8C394.14 372.464 395.097 372.624 395.752 373.279C396.096 373.615 396.29 374.043 396.365 374.488H418.318C418.393 374.051 418.595 373.623 418.931 373.287C419.796 372.422 421.198 372.422 422.063 373.287C422.928 374.152 422.928 375.555 422.063 376.42C421.198 377.285 419.796 377.285 418.931 376.42C418.595 376.084 418.393 375.664 418.318 375.227H396.357C396.281 375.664 396.08 376.084 395.744 376.42C394.879 377.285 393.476 377.285 392.611 376.42C391.746 375.555 391.746 374.152 392.611 373.287C392.636 373.262 392.67 373.245 392.695 373.22L380.568 354.114C379.762 354.459 378.788 354.308 378.133 353.644C377.797 353.308 377.595 352.88 377.52 352.443H358.994C358.994 352.443 358.994 352.46 358.994 352.468C358.985 352.653 358.96 352.838 358.943 353.014C358.943 353.048 358.935 353.073 358.926 353.107C358.901 353.275 358.868 353.451 358.834 353.619C358.826 353.661 358.809 353.711 358.8 353.753C358.758 353.904 358.725 354.064 358.675 354.215C358.649 354.282 358.633 354.35 358.607 354.408C358.557 354.543 358.515 354.669 358.456 354.795C358.414 354.887 358.372 354.971 358.33 355.055C358.28 355.156 358.229 355.265 358.179 355.366C358.112 355.483 358.045 355.601 357.977 355.71C357.935 355.777 357.893 355.853 357.843 355.92C357.734 356.079 357.616 356.239 357.499 356.39C357.482 356.415 357.465 356.432 357.448 356.457C357.297 356.634 357.146 356.81 356.978 356.978C356.835 357.121 356.693 357.247 356.541 357.373C356.525 357.39 356.508 357.406 356.491 357.423C356.357 357.532 356.214 357.633 356.071 357.734C356.038 357.759 355.996 357.793 355.954 357.818C355.802 357.919 355.651 358.011 355.492 358.095C355.458 358.112 355.433 358.129 355.399 358.154C355.231 358.246 355.055 358.33 354.887 358.406C354.87 358.406 354.853 358.423 354.837 358.431C354.652 358.515 354.459 358.582 354.266 358.649C353.669 358.851 353.056 358.96 352.435 358.994V377.52C352.871 377.595 353.3 377.797 353.636 378.133C354.291 378.796 354.45 379.762 354.106 380.568L373.212 392.695C373.212 392.695 373.254 392.636 373.279 392.611C374.144 391.746 375.546 391.746 376.411 392.611C377.276 393.476 377.276 394.879 376.411 395.744C376.075 396.08 375.655 396.281 375.219 396.357V418.318C375.655 418.393 376.075 418.595 376.411 418.931C377.276 419.796 377.276 421.198 376.411 422.063C375.546 422.928 374.144 422.928 373.279 422.063C372.414 421.198 372.414 419.796 373.279 418.931C373.615 418.595 374.043 418.393 374.48 418.318V396.365C374.035 396.29 373.615 396.088 373.27 395.752C372.615 395.097 372.456 394.14 372.792 393.333L353.703 381.181C353.703 381.181 353.652 381.249 353.627 381.274C353.283 381.618 352.863 381.811 352.426 381.887V432.813C352.863 432.889 353.283 433.09 353.627 433.426C354.492 434.291 354.492 435.694 353.627 436.559C353.291 436.894 352.863 437.096 352.426 437.172V455.698C354.081 455.782 355.71 456.454 356.978 457.713C359.691 460.426 359.691 464.827 356.978 467.547C354.266 470.26 349.865 470.26 347.144 467.547C344.423 464.835 344.431 460.434 347.144 457.713C348.404 456.445 350.041 455.782 351.687 455.698V437.172C351.251 437.096 350.831 436.894 350.495 436.559C349.831 435.895 349.68 434.929 350.024 434.123L330.919 421.996C330.919 421.996 330.877 422.055 330.852 422.08C329.987 422.945 328.584 422.945 327.719 422.08C326.854 421.215 326.854 419.813 327.719 418.948C328.055 418.612 328.475 418.41 328.912 418.335V396.374C328.475 396.298 328.055 396.096 327.719 395.761C326.854 394.896 326.854 393.493 327.719 392.628C328.584 391.763 329.987 391.763 330.852 392.628C331.717 393.493 331.717 394.896 330.852 395.761C330.516 396.096 330.087 396.298 329.651 396.374V418.335C330.096 418.41 330.516 418.612 330.86 418.948C331.515 419.603 331.675 420.56 331.339 421.366L350.428 433.518C350.428 433.518 350.478 433.451 350.503 433.426C350.839 433.09 351.259 432.889 351.704 432.813V381.887C351.267 381.811 350.848 381.61 350.512 381.274C349.647 380.409 349.647 379.006 350.512 378.141C350.848 377.805 351.267 377.604 351.704 377.528V359.002C351.293 358.977 350.881 358.926 350.478 358.826C350.478 358.826 350.478 358.826 350.47 358.826C350.276 358.784 350.083 358.725 349.899 358.666C349.873 358.666 349.848 358.649 349.831 358.641C349.663 358.582 349.495 358.523 349.327 358.448C349.285 358.431 349.235 358.406 349.193 358.389C349.05 358.322 348.908 358.255 348.765 358.179C348.698 358.137 348.622 358.095 348.555 358.053C348.446 357.986 348.328 357.919 348.21 357.843C348.11 357.776 348.009 357.692 347.9 357.616C347.824 357.558 347.749 357.507 347.673 357.448C347.497 357.306 347.329 357.154 347.161 356.987C344.448 354.274 344.448 349.873 347.161 347.152C349.873 344.44 354.274 344.44 356.995 347.152C357.02 347.178 357.037 347.203 357.062 347.22C357.205 347.362 357.339 347.505 357.457 347.656C357.524 347.732 357.574 347.807 357.633 347.891C357.709 347.992 357.784 348.093 357.86 348.194C357.927 348.294 357.986 348.404 358.053 348.504C358.103 348.588 358.154 348.672 358.196 348.748C358.263 348.874 358.322 349 358.381 349.126C358.414 349.193 358.448 349.252 358.473 349.319C358.532 349.462 358.591 349.613 358.641 349.756C358.658 349.806 358.674 349.857 358.691 349.899C358.742 350.058 358.792 350.226 358.834 350.394C358.834 350.428 358.851 350.461 358.859 350.495C358.901 350.671 358.935 350.847 358.96 351.032C358.96 351.057 358.96 351.074 358.968 351.099C358.994 351.284 359.01 351.477 359.027 351.662C359.027 351.662 359.027 351.679 359.027 351.687H377.553C377.629 351.251 377.831 350.831 378.167 350.486C379.032 349.621 380.434 349.621 381.299 350.486C381.635 350.822 381.836 351.251 381.912 351.687H432.838C432.914 351.251 433.115 350.822 433.451 350.486C433.476 350.461 433.51 350.436 433.544 350.411L421.383 331.322C420.577 331.658 419.62 331.498 418.965 330.843C418.629 330.499 418.427 330.079 418.351 329.634H396.39C396.315 330.071 396.113 330.499 395.777 330.835C394.912 331.7 393.51 331.7 392.645 330.835C391.78 329.97 391.78 328.567 392.645 327.702C393.51 326.837 394.912 326.837 395.777 327.702C396.113 328.038 396.315 328.458 396.39 328.895H418.351C418.427 328.458 418.629 328.038 418.965 327.702C419.829 326.837 421.232 326.837 422.097 327.702C422.962 328.567 422.962 329.97 422.097 330.835C422.072 330.86 422.038 330.877 422.013 330.902L434.14 350.008C434.946 349.663 435.912 349.815 436.575 350.478C436.911 350.814 437.121 351.242 437.188 351.679H455.715C455.799 350.024 456.47 348.395 457.73 347.136C460.443 344.423 464.843 344.423 467.564 347.136L467.547 347.152ZM25.2783 135.848C26.538 134.588 27.2099 132.959 27.2938 131.296H45.82C45.8956 131.733 46.0972 132.153 46.4331 132.497C47.0966 133.152 48.0623 133.311 48.8686 132.967L60.9954 152.073C60.9954 152.073 60.9366 152.115 60.9114 152.14C60.0464 153.005 60.0464 154.408 60.9114 155.273C61.7764 156.138 63.1789 156.138 64.0439 155.273C64.3799 154.937 64.5814 154.517 64.657 154.08H86.618C86.6936 154.517 86.8952 154.937 87.2311 155.273C88.0961 156.138 89.4986 156.138 90.3636 155.273C91.2286 154.408 91.2286 153.005 90.3636 152.14C89.4986 151.275 88.0961 151.275 87.2311 152.14C86.8952 152.476 86.6936 152.904 86.618 153.341H64.657C64.5814 152.896 64.3883 152.476 64.0439 152.132C63.3889 151.477 62.4315 151.317 61.6253 151.653L49.4732 132.564C49.4732 132.564 49.5404 132.514 49.5656 132.488C49.9015 132.153 50.1031 131.733 50.1787 131.288H101.105C101.18 131.724 101.382 132.144 101.718 132.48C102.583 133.345 103.985 133.345 104.85 132.48C105.186 132.144 105.388 131.724 105.463 131.288H123.99C124.023 131.901 124.132 132.514 124.334 133.102C124.334 133.118 124.342 133.135 124.351 133.152C124.409 133.328 124.477 133.505 124.552 133.673C124.569 133.715 124.586 133.748 124.603 133.79C124.67 133.941 124.745 134.092 124.821 134.244C124.855 134.302 124.897 134.37 124.93 134.428C125.006 134.554 125.073 134.68 125.157 134.798C125.216 134.89 125.283 134.974 125.35 135.067C125.417 135.159 125.476 135.243 125.552 135.335C125.686 135.495 125.829 135.655 125.98 135.806C125.988 135.814 125.997 135.823 126.005 135.839C128.718 138.552 133.127 138.552 135.839 135.839C138.552 133.127 138.552 128.726 135.839 126.005C135.68 125.837 135.503 125.686 135.327 125.543C135.26 125.493 135.193 125.442 135.125 125.392C135.016 125.308 134.907 125.224 134.79 125.14C134.697 125.073 134.596 125.023 134.496 124.964C134.403 124.913 134.319 124.855 134.227 124.804C134.109 124.737 133.983 124.678 133.857 124.628C133.79 124.594 133.723 124.561 133.647 124.527C133.505 124.468 133.362 124.418 133.219 124.367C133.169 124.351 133.11 124.326 133.06 124.309C132.9 124.258 132.74 124.216 132.581 124.174C132.539 124.166 132.505 124.158 132.463 124.149C132.287 124.107 132.119 124.082 131.943 124.048C131.917 124.048 131.884 124.04 131.859 124.04C131.674 124.015 131.497 123.998 131.313 123.99C131.304 123.99 131.288 123.99 131.279 123.99V105.463C131.716 105.388 132.144 105.186 132.48 104.85C133.345 103.985 133.345 102.583 132.48 101.718C132.144 101.382 131.724 101.18 131.279 101.105V50.1787C131.716 50.1031 132.144 49.9015 132.48 49.5656C132.505 49.5404 132.53 49.5068 132.556 49.4732L151.645 61.6253C151.309 62.4315 151.468 63.3889 152.123 64.0439C152.459 64.3799 152.887 64.5898 153.333 64.657V86.618C152.896 86.6936 152.468 86.8952 152.132 87.2311C151.267 88.0961 151.267 89.4986 152.132 90.3636C152.997 91.2286 154.399 91.2286 155.264 90.3636C156.129 89.4986 156.129 88.0961 155.264 87.2311C154.928 86.8952 154.508 86.6936 154.063 86.618V64.657C154.5 64.5814 154.92 64.3799 155.256 64.0439C156.121 63.1789 156.121 61.7764 155.256 60.9114C154.391 60.0464 152.988 60.0464 152.123 60.9114C152.098 60.9366 152.081 60.9702 152.056 60.9954L132.95 48.8686C133.295 48.0623 133.143 47.0966 132.48 46.4331C132.144 46.0972 131.716 45.8956 131.279 45.8201V27.2938C132.934 27.2099 134.563 26.538 135.831 25.2783C138.543 22.5657 138.543 18.1651 135.831 15.4441C133.118 12.7315 128.718 12.7315 125.997 15.4441C123.284 18.1567 123.284 22.5573 125.997 25.2783C127.256 26.538 128.894 27.2099 130.548 27.2938V45.8201C130.112 45.8956 129.692 46.0972 129.356 46.4331C128.491 47.2981 128.491 48.7006 129.356 49.5656C129.692 49.9015 130.112 50.1031 130.548 50.1787V101.105C130.112 101.18 129.692 101.382 129.348 101.718C129.314 101.751 129.297 101.785 129.272 101.81L110.183 89.6581C110.519 88.8519 110.359 87.8945 109.704 87.2395C109.368 86.8952 108.94 86.6936 108.495 86.6264V64.6654C108.932 64.5898 109.352 64.3883 109.696 64.0523C110.561 63.1873 110.561 61.7848 109.696 60.9198C108.831 60.0548 107.429 60.0548 106.564 60.9198C105.699 61.7848 105.699 63.1873 106.564 64.0523C106.899 64.3883 107.319 64.5898 107.764 64.6654V86.6264C107.328 86.702 106.908 86.9036 106.572 87.2395C105.707 88.1045 105.707 89.507 106.572 90.372C107.437 91.237 108.839 91.237 109.704 90.372C109.73 90.3468 109.746 90.3132 109.772 90.288L128.877 102.415C128.533 103.221 128.693 104.187 129.348 104.85C129.683 105.186 130.103 105.388 130.548 105.463V123.99C130.548 123.99 130.523 123.99 130.515 123.99C130.339 123.998 130.162 124.015 129.986 124.04C129.952 124.04 129.91 124.048 129.877 124.057C129.709 124.082 129.541 124.116 129.381 124.149C129.331 124.158 129.28 124.174 129.23 124.183C129.079 124.216 128.936 124.258 128.785 124.309C128.718 124.334 128.642 124.359 128.575 124.384C128.449 124.426 128.323 124.477 128.205 124.527C128.113 124.569 128.012 124.611 127.92 124.661C127.819 124.703 127.727 124.754 127.626 124.804C127.5 124.871 127.382 124.947 127.256 125.023C127.198 125.065 127.13 125.098 127.072 125.14C126.895 125.258 126.727 125.384 126.559 125.518C126.551 125.518 126.543 125.526 126.534 125.535C126.349 125.686 126.173 125.837 126.005 126.005C125.711 126.299 125.459 126.618 125.224 126.946C125.207 126.971 125.182 126.996 125.165 127.03C125.056 127.189 124.964 127.349 124.871 127.508C124.855 127.534 124.846 127.559 124.829 127.576C124.737 127.752 124.653 127.928 124.569 128.105C124.569 128.121 124.561 128.13 124.552 128.147C124.216 128.919 124.032 129.734 123.99 130.557H105.463C105.388 130.12 105.186 129.692 104.85 129.356C104.187 128.701 103.221 128.541 102.415 128.886L90.288 109.78C90.288 109.78 90.3468 109.738 90.372 109.713C91.237 108.848 91.237 107.445 90.372 106.58C89.507 105.715 88.1045 105.715 87.2395 106.58C86.9036 106.916 86.702 107.336 86.6264 107.773H64.6654C64.5898 107.336 64.3882 106.916 64.0523 106.572C63.1873 105.707 61.7848 105.707 60.9198 106.572C60.0548 107.437 60.0548 108.839 60.9198 109.704C61.7848 110.569 63.1873 110.569 64.0523 109.704C64.3882 109.368 64.5898 108.94 64.6654 108.503H86.618C86.6936 108.949 86.8952 109.368 87.2311 109.713C87.8861 110.368 88.8435 110.527 89.6497 110.192L101.802 129.28C101.802 129.28 101.735 129.331 101.709 129.356C101.373 129.692 101.172 130.12 101.096 130.557H50.1703C50.0947 130.12 49.8931 129.7 49.5572 129.356C48.6922 128.491 47.2897 128.491 46.4247 129.356C46.0888 129.692 45.8872 130.12 45.8116 130.557H27.2854C27.2015 128.902 26.5296 127.273 25.2699 126.005C22.5573 123.293 18.1567 123.293 15.4357 126.005C12.7231 128.718 12.7231 133.118 15.4357 135.839C18.1483 138.552 22.5489 138.552 25.2699 135.839L25.2783 135.848ZM327.711 87.2395C326.846 88.1045 326.846 89.507 327.711 90.372C328.576 91.237 329.978 91.237 330.843 90.372C331.708 89.507 331.708 88.1045 330.843 87.2395C330.507 86.9036 330.079 86.702 329.642 86.6264V64.6654C330.087 64.5898 330.507 64.3883 330.852 64.0523C331.507 63.3973 331.666 62.4399 331.33 61.6337L350.419 49.4816C350.419 49.4816 350.47 49.5488 350.495 49.574C350.839 49.9183 351.259 50.1199 351.696 50.1871V101.113C351.259 101.189 350.831 101.39 350.495 101.726C349.63 102.591 349.63 103.994 350.495 104.859C350.831 105.195 351.259 105.396 351.696 105.472V123.998C350.663 124.057 349.638 124.334 348.706 124.846C348.706 124.846 348.698 124.846 348.689 124.855C348.135 125.165 347.614 125.543 347.144 126.014C344.431 128.726 344.431 133.127 347.144 135.848C349.857 138.56 354.257 138.56 356.978 135.848C357.289 135.537 357.558 135.201 357.793 134.857C357.793 134.857 357.801 134.84 357.81 134.832C357.927 134.664 358.028 134.487 358.12 134.319C358.12 134.311 358.137 134.294 358.137 134.286C358.238 134.101 358.33 133.916 358.414 133.731C358.414 133.731 358.414 133.731 358.414 133.723C358.75 132.95 358.935 132.136 358.985 131.304H377.511C377.587 131.741 377.789 132.161 378.125 132.505C378.99 133.37 380.392 133.37 381.257 132.505C381.593 132.169 381.794 131.749 381.87 131.304H432.796C432.872 131.741 433.073 132.169 433.409 132.505C433.434 132.539 433.468 132.556 433.502 132.581L421.341 151.67C420.535 151.334 419.578 151.493 418.922 152.148C418.587 152.493 418.385 152.913 418.309 153.358H396.348C396.273 152.921 396.071 152.493 395.735 152.157C394.87 151.292 393.468 151.292 392.603 152.157C391.738 153.022 391.738 154.424 392.603 155.289C393.468 156.154 394.87 156.154 395.735 155.289C396.071 154.953 396.273 154.533 396.348 154.097H418.309C418.385 154.533 418.587 154.953 418.922 155.289C419.788 156.154 421.19 156.154 422.055 155.289C422.92 154.424 422.92 153.022 422.055 152.157C422.03 152.132 421.996 152.115 421.971 152.09L434.098 132.984C434.904 133.328 435.87 133.177 436.533 132.514C436.869 132.178 437.079 131.749 437.146 131.313H455.673C455.757 132.967 456.428 134.596 457.688 135.856C460.401 138.569 464.801 138.569 467.522 135.856C470.235 133.144 470.235 128.743 467.522 126.022C464.81 123.309 460.409 123.309 457.688 126.022C456.428 127.282 455.757 128.911 455.673 130.565H437.146C437.071 130.129 436.869 129.709 436.533 129.373C435.668 128.508 434.266 128.508 433.401 129.373C433.065 129.709 432.863 130.129 432.788 130.565H381.862C381.786 130.129 381.585 129.709 381.249 129.364C381.215 129.339 381.181 129.314 381.156 129.289L393.308 110.2C394.115 110.536 395.072 110.376 395.727 109.721C396.071 109.377 396.264 108.957 396.34 108.512H418.293C418.368 108.949 418.57 109.377 418.906 109.713C419.771 110.578 421.173 110.578 422.038 109.713C422.903 108.848 422.903 107.445 422.038 106.58C421.173 105.715 419.771 105.715 418.906 106.58C418.57 106.916 418.368 107.336 418.293 107.781H396.332C396.256 107.345 396.054 106.925 395.719 106.589C394.854 105.724 393.451 105.724 392.586 106.589C391.721 107.454 391.721 108.856 392.586 109.721C392.611 109.746 392.645 109.763 392.67 109.788L380.543 128.894C379.737 128.55 378.763 128.701 378.108 129.364C377.772 129.7 377.57 130.12 377.495 130.565H358.968C358.935 129.952 358.826 129.339 358.624 128.743C358.624 128.726 358.616 128.718 358.607 128.701C358.549 128.516 358.481 128.34 358.406 128.163C358.389 128.13 358.372 128.096 358.364 128.063C358.297 127.903 358.221 127.752 358.137 127.592C358.103 127.534 358.07 127.483 358.036 127.424C357.961 127.298 357.885 127.164 357.801 127.038C357.742 126.954 357.684 126.87 357.625 126.795C357.558 126.702 357.49 126.601 357.406 126.509C357.28 126.349 357.138 126.198 356.986 126.047C356.97 126.03 356.961 126.022 356.953 126.005C356.953 126.005 356.928 125.98 356.911 125.972C356.76 125.82 356.609 125.686 356.449 125.552C356.357 125.476 356.256 125.409 356.163 125.342C356.08 125.283 356.004 125.216 355.92 125.157C355.794 125.073 355.668 124.997 355.534 124.922C355.475 124.888 355.424 124.855 355.366 124.821C355.215 124.737 355.055 124.661 354.895 124.594C354.862 124.577 354.828 124.561 354.795 124.552C354.618 124.477 354.442 124.409 354.257 124.342C354.249 124.342 354.232 124.334 354.224 124.326C353.636 124.132 353.023 124.015 352.401 123.981V105.455C352.838 105.379 353.258 105.178 353.602 104.842C354.257 104.187 354.417 103.213 354.072 102.406L373.178 90.2796C373.178 90.2796 373.22 90.3384 373.245 90.3636C374.11 91.2286 375.513 91.2286 376.378 90.3636C377.243 89.4986 377.243 88.0961 376.378 87.2311C376.042 86.8952 375.622 86.6936 375.185 86.618V64.657C375.622 64.5814 376.042 64.3799 376.378 64.0439C377.243 63.1789 377.243 61.7764 376.378 60.9114C375.513 60.0464 374.11 60.0464 373.245 60.9114C372.38 61.7764 372.38 63.1789 373.245 64.0439C373.581 64.3799 374.009 64.5898 374.446 64.657V86.618C374.001 86.6936 373.581 86.8952 373.237 87.2311C372.582 87.8861 372.422 88.8435 372.758 89.6497L353.669 101.802C353.669 101.802 353.619 101.735 353.594 101.709C353.258 101.373 352.838 101.172 352.393 101.096V50.1703C352.829 50.0947 353.249 49.8931 353.585 49.5572C354.45 48.6922 354.45 47.2897 353.585 46.4247C353.249 46.0888 352.829 45.8872 352.393 45.8117V27.2854C354.047 27.2015 355.676 26.5296 356.945 25.2699C359.657 22.5573 359.657 18.1567 356.945 15.4357C354.232 12.7231 349.831 12.7231 347.11 15.4357C344.398 18.1483 344.398 22.5489 347.11 25.2699C348.378 26.5296 350.008 27.2015 351.662 27.2854V45.8117C351.225 45.8872 350.797 46.0888 350.461 46.4247C349.806 47.0798 349.647 48.0539 349.991 48.8602L330.885 60.987C330.885 60.987 330.843 60.9282 330.818 60.903C329.953 60.038 328.551 60.038 327.686 60.903C326.821 61.768 326.821 63.1705 327.686 64.0355C328.021 64.3715 328.441 64.573 328.878 64.6486V86.6096C328.441 86.6852 328.021 86.8868 327.686 87.2227L327.711 87.2395ZM155.272 395.761C156.137 394.896 156.137 393.493 155.272 392.628C154.407 391.763 153.005 391.763 152.14 392.628C151.275 393.493 151.275 394.896 152.14 395.761C152.476 396.096 152.904 396.298 153.341 396.374V418.335C152.904 418.41 152.476 418.612 152.132 418.948C151.477 419.603 151.317 420.56 151.653 421.366L132.564 433.518C132.564 433.518 132.514 433.451 132.488 433.426C132.153 433.09 131.733 432.889 131.288 432.813V381.887C131.724 381.811 132.144 381.61 132.48 381.274C133.345 380.409 133.345 379.006 132.48 378.141C132.144 377.805 131.724 377.604 131.288 377.528V359.002C131.288 359.002 131.313 359.002 131.33 359.002C131.506 358.994 131.674 358.977 131.85 358.952C131.892 358.952 131.934 358.943 131.976 358.935C132.136 358.91 132.295 358.884 132.455 358.842C132.514 358.826 132.572 358.817 132.631 358.8C132.774 358.767 132.917 358.725 133.051 358.683C133.135 358.658 133.211 358.624 133.295 358.599C133.412 358.557 133.521 358.515 133.639 358.465C133.748 358.423 133.857 358.364 133.958 358.313C134.042 358.271 134.126 358.238 134.21 358.187C134.353 358.112 134.496 358.028 134.638 357.935C134.68 357.91 134.731 357.885 134.773 357.852C135.151 357.6 135.512 357.314 135.848 356.978C138.56 354.266 138.56 349.865 135.848 347.144C135.68 346.976 135.503 346.816 135.319 346.665C132.589 344.44 128.558 344.599 126.014 347.144C125.678 347.48 125.392 347.841 125.14 348.219C125.115 348.261 125.09 348.303 125.065 348.345C124.972 348.488 124.888 348.63 124.813 348.773C124.771 348.857 124.729 348.941 124.695 349.025C124.645 349.134 124.586 349.243 124.544 349.353C124.493 349.462 124.451 349.579 124.418 349.689C124.393 349.773 124.359 349.857 124.334 349.94C124.292 350.075 124.258 350.209 124.216 350.352C124.2 350.419 124.183 350.478 124.174 350.537C124.141 350.688 124.107 350.847 124.09 351.007C124.09 351.049 124.074 351.099 124.065 351.141C124.04 351.309 124.023 351.477 124.015 351.645C124.015 351.662 124.015 351.679 124.015 351.696H105.489C105.413 351.259 105.211 350.839 104.875 350.503C104.01 349.638 102.608 349.638 101.743 350.503C101.407 350.839 101.206 351.259 101.13 351.696H50.2039C50.1283 351.259 49.9267 350.831 49.5908 350.495C49.5656 350.47 49.5236 350.444 49.4984 350.419L61.6505 331.33C62.4567 331.666 63.4141 331.507 64.0691 330.852C64.4134 330.507 64.6066 330.087 64.6822 329.642H86.6432C86.7188 330.079 86.9204 330.507 87.2563 330.843C88.1213 331.708 89.5238 331.708 90.3888 330.843C91.2538 329.978 91.2538 328.576 90.3888 327.711C89.5238 326.846 88.1213 326.846 87.2563 327.711C86.9204 328.047 86.7188 328.467 86.6432 328.903H64.6822C64.6066 328.467 64.405 328.047 64.0691 327.711C63.2041 326.846 61.8016 326.846 60.9366 327.711C60.0716 328.576 60.0716 329.978 60.9366 330.843C60.9618 330.868 60.9954 330.885 61.0206 330.91L48.8938 350.016C48.0875 349.672 47.1217 349.823 46.4583 350.486C46.1224 350.822 45.9208 351.242 45.8452 351.687H27.319C27.235 350.033 26.5632 348.404 25.3035 347.136C22.5909 344.423 18.1903 344.423 15.4693 347.136C12.7567 349.848 12.7567 354.249 15.4693 356.97C18.1819 359.691 22.5825 359.682 25.3035 356.97C26.5632 355.71 27.235 354.072 27.319 352.426H45.8452C45.9208 352.863 46.1224 353.283 46.4583 353.627C47.3233 354.492 48.7258 354.492 49.5908 353.627C49.9267 353.291 50.1283 352.863 50.2039 352.426H101.13C101.206 352.863 101.407 353.291 101.743 353.627C101.777 353.652 101.81 353.678 101.835 353.703L89.6833 372.792C88.8771 372.456 87.9197 372.615 87.2647 373.27C86.9288 373.606 86.7188 374.035 86.6516 374.48H64.699C64.6234 374.043 64.4218 373.615 64.0859 373.279C63.2209 372.414 61.8184 372.414 60.9534 373.279C60.0884 374.144 60.0884 375.546 60.9534 376.411C61.8184 377.276 63.2209 377.276 64.0859 376.411C64.4218 376.075 64.6234 375.655 64.699 375.219H86.66C86.7356 375.655 86.9371 376.075 87.2731 376.411C88.1381 377.276 89.5406 377.276 90.4056 376.411C91.2706 375.546 91.2706 374.144 90.4056 373.279C90.3804 373.254 90.3468 373.237 90.3216 373.212L102.448 354.106C103.255 354.45 104.22 354.299 104.884 353.636C105.22 353.291 105.421 352.871 105.497 352.435H124.023C124.023 352.435 124.023 352.46 124.023 352.477C124.032 352.653 124.048 352.829 124.074 352.997C124.074 353.031 124.082 353.073 124.09 353.107C124.116 353.275 124.149 353.443 124.183 353.61C124.191 353.652 124.208 353.703 124.216 353.745C124.258 353.904 124.3 354.056 124.351 354.207C124.367 354.266 124.393 354.324 124.409 354.383C124.46 354.526 124.51 354.66 124.569 354.795C124.603 354.87 124.636 354.946 124.67 355.013C124.729 355.131 124.779 355.248 124.846 355.366C124.897 355.458 124.955 355.55 125.006 355.643C125.065 355.735 125.115 355.828 125.174 355.92C125.249 356.038 125.342 356.155 125.434 356.273C125.484 356.331 125.526 356.399 125.577 356.457C125.72 356.634 125.871 356.802 126.039 356.97C126.198 357.138 126.375 357.289 126.551 357.432C126.61 357.482 126.677 357.524 126.744 357.574C126.862 357.658 126.971 357.751 127.088 357.826C127.181 357.893 127.273 357.944 127.374 358.003C127.466 358.061 127.559 358.112 127.651 358.171C127.769 358.229 127.886 358.288 128.004 358.347C128.079 358.381 128.147 358.414 128.222 358.448C128.357 358.507 128.499 358.557 128.642 358.607C128.701 358.624 128.751 358.649 128.81 358.666C128.97 358.716 129.121 358.758 129.28 358.8C129.322 358.809 129.364 358.826 129.406 358.834C129.574 358.876 129.742 358.901 129.919 358.926C129.952 358.926 129.986 358.935 130.019 358.943C130.196 358.968 130.372 358.985 130.557 358.994C130.565 358.994 130.582 358.994 130.59 358.994V377.52C130.154 377.595 129.725 377.797 129.39 378.133C128.734 378.796 128.575 379.762 128.919 380.568L109.814 392.695C109.814 392.695 109.772 392.636 109.746 392.611C108.881 391.746 107.479 391.746 106.614 392.611C105.749 393.476 105.749 394.879 106.614 395.744C106.95 396.08 107.37 396.281 107.806 396.357V418.318C107.37 418.393 106.95 418.595 106.606 418.931C105.741 419.796 105.741 421.198 106.606 422.063C107.471 422.928 108.873 422.928 109.738 422.063C110.603 421.198 110.603 419.796 109.738 418.931C109.402 418.595 108.974 418.393 108.537 418.318V396.365C108.974 396.29 109.402 396.088 109.746 395.752C110.401 395.097 110.561 394.14 110.225 393.333L129.314 381.181C129.314 381.181 129.364 381.249 129.39 381.274C129.725 381.618 130.154 381.811 130.59 381.887V432.813C130.154 432.889 129.725 433.09 129.39 433.426C128.525 434.291 128.525 435.694 129.39 436.559C129.725 436.894 130.154 437.096 130.59 437.172V455.698C128.936 455.782 127.307 456.454 126.039 457.713C123.326 460.426 123.326 464.827 126.039 467.547C128.751 470.268 133.152 470.26 135.873 467.547C138.585 464.835 138.585 460.434 135.873 457.713C134.613 456.445 132.976 455.782 131.321 455.698V437.172C131.758 437.096 132.178 436.894 132.522 436.559C133.177 435.895 133.337 434.929 132.992 434.123L152.098 421.996C152.098 421.996 152.14 422.055 152.165 422.08C153.03 422.945 154.433 422.945 155.298 422.08C156.163 421.215 156.163 419.813 155.298 418.948C154.962 418.612 154.542 418.41 154.105 418.335V396.374C154.542 396.298 154.962 396.096 155.306 395.761H155.272ZM482.992 319.682C482.992 323.52 479.876 326.636 476.038 326.636C472.2 326.636 469.084 323.52 469.084 319.682C469.084 317.893 469.765 316.273 470.873 315.038L457.772 301.937C457.411 302.197 456.966 302.348 456.496 302.348C455.563 302.348 454.766 301.777 454.438 300.963L432.351 305.892C432.351 305.892 432.359 305.968 432.359 306.002C432.359 307.228 431.368 308.219 430.142 308.219C428.916 308.219 427.925 307.228 427.925 306.002C427.925 305.523 428.076 305.086 428.337 304.725L412.809 289.197C412.448 289.457 412.002 289.609 411.532 289.609C410.306 289.609 409.315 288.618 409.315 287.391C409.315 286.165 410.306 285.174 411.532 285.174C412.758 285.174 413.749 286.165 413.749 287.391C413.749 287.87 413.59 288.315 413.329 288.676L428.857 304.204C429.219 303.944 429.664 303.785 430.142 303.785C431.066 303.785 431.856 304.356 432.191 305.153L454.287 300.249C454.287 300.249 454.279 300.165 454.279 300.123C454.279 299.644 454.43 299.208 454.69 298.846L418.679 262.835C418.318 263.087 417.881 263.247 417.402 263.247C416.176 263.247 415.194 262.256 415.185 261.03C415.185 260.551 415.337 260.114 415.597 259.753L402.496 246.652C402.496 246.652 402.412 246.711 402.37 246.745C402.126 246.955 401.874 247.148 401.606 247.316C401.572 247.341 401.547 247.366 401.505 247.391C401.505 247.391 401.505 247.391 401.496 247.391C401.404 247.45 401.303 247.5 401.203 247.559C401.169 247.576 401.144 247.593 401.11 247.61C401.068 247.635 401.018 247.66 400.976 247.685C400.951 247.694 400.934 247.71 400.909 247.719C400.816 247.761 400.724 247.803 400.631 247.845C400.589 247.862 400.539 247.887 400.497 247.904C400.464 247.912 400.438 247.929 400.413 247.937C400.371 247.954 400.321 247.971 400.27 247.988C400.17 248.03 400.06 248.063 399.951 248.097C399.926 248.097 399.901 248.114 399.876 248.122C399.85 248.122 399.834 248.139 399.808 248.147C399.733 248.172 399.649 248.189 399.573 248.206C399.447 248.239 399.313 248.273 399.187 248.298C399.061 248.323 398.935 248.34 398.809 248.357C398.733 248.365 398.658 248.382 398.582 248.391C398.523 248.391 398.456 248.399 398.398 248.407C398.213 248.424 398.036 248.441 397.843 248.441C397.843 248.441 397.843 248.441 397.835 248.441C397.835 248.441 397.835 248.441 397.826 248.441C397.65 248.441 397.474 248.424 397.306 248.416C397.23 248.416 397.155 248.407 397.079 248.399C397.012 248.391 396.936 248.382 396.861 248.365C396.735 248.349 396.609 248.332 396.483 248.307C396.357 248.281 396.222 248.248 396.096 248.214C396.021 248.189 395.937 248.172 395.861 248.156C395.836 248.156 395.819 248.139 395.803 248.139C395.769 248.13 395.744 248.114 395.71 248.105C395.609 248.072 395.509 248.038 395.408 248.004C395.357 247.988 395.315 247.971 395.265 247.954C395.24 247.946 395.215 247.929 395.181 247.92C395.131 247.904 395.08 247.878 395.03 247.853C394.938 247.811 394.854 247.778 394.761 247.736C394.736 247.727 394.719 247.719 394.694 247.702C394.644 247.677 394.602 247.652 394.56 247.626C394.526 247.61 394.501 247.593 394.467 247.576C394.366 247.526 394.266 247.467 394.173 247.408C394.173 247.408 394.173 247.408 394.165 247.408C394.131 247.383 394.106 247.358 394.073 247.341C393.804 247.165 393.543 246.971 393.3 246.761C393.258 246.728 393.216 246.703 393.182 246.669L380.081 259.77C380.342 260.131 380.493 260.576 380.493 261.047C380.493 262.273 379.502 263.264 378.276 263.264C377.797 263.264 377.36 263.113 376.999 262.852L340.988 298.863C341.248 299.224 341.4 299.669 341.4 300.14C341.4 300.182 341.391 300.224 341.391 300.266L363.487 305.17C363.814 304.364 364.612 303.801 365.536 303.801C366.014 303.801 366.46 303.961 366.821 304.221L382.349 288.693C382.088 288.332 381.937 287.887 381.929 287.408C381.929 286.182 382.92 285.191 384.146 285.191C385.372 285.191 386.363 286.182 386.363 287.408C386.363 288.634 385.372 289.625 384.146 289.625C383.667 289.625 383.231 289.474 382.869 289.214L367.341 304.742C367.593 305.103 367.753 305.54 367.753 306.018C367.753 307.245 366.762 308.236 365.536 308.236C364.31 308.236 363.319 307.245 363.319 306.018C363.319 305.985 363.327 305.943 363.327 305.909L341.24 300.98C340.913 301.794 340.123 302.365 339.183 302.365C338.704 302.365 338.267 302.214 337.906 301.954L324.83 315.03C325.939 316.264 326.619 317.885 326.619 319.674C326.619 321.597 325.838 323.335 324.578 324.595C323.319 325.863 321.572 326.653 319.649 326.653C317.86 326.653 316.239 325.972 315.004 324.864L301.929 337.94C302.189 338.301 302.34 338.746 302.34 339.225C302.34 340.157 301.769 340.946 300.954 341.274L305.884 363.361C305.884 363.361 305.96 363.352 305.993 363.352C307.219 363.352 308.21 364.343 308.21 365.569C308.21 366.795 307.219 367.786 305.993 367.786C305.515 367.786 305.078 367.635 304.717 367.375L289.189 382.903C289.449 383.264 289.6 383.701 289.6 384.18C289.6 385.406 288.609 386.397 287.383 386.397C286.157 386.397 285.166 385.406 285.166 384.18C285.166 382.953 286.157 381.962 287.383 381.962C287.862 381.962 288.298 382.114 288.668 382.374L304.196 366.846C303.936 366.485 303.776 366.04 303.776 365.561C303.776 364.637 304.347 363.848 305.145 363.512L300.241 341.416C300.241 341.416 300.157 341.425 300.115 341.425C299.636 341.425 299.199 341.274 298.83 341.013L262.819 377.024C263.071 377.385 263.23 377.822 263.23 378.301C263.23 379.527 262.239 380.518 261.013 380.518C260.534 380.518 260.098 380.367 259.736 380.106L246.635 393.208C246.635 393.208 246.652 393.233 246.661 393.241C246.719 393.308 246.77 393.375 246.82 393.434C246.82 393.443 246.837 393.451 246.845 393.459C246.896 393.518 246.946 393.577 246.988 393.636C247.013 393.669 247.039 393.703 247.064 393.737C247.114 393.812 247.173 393.888 247.223 393.963C247.223 393.963 247.232 393.98 247.24 393.989C247.274 394.039 247.307 394.089 247.341 394.14C247.374 394.19 247.4 394.24 247.433 394.291C247.475 394.375 247.526 394.45 247.568 394.534C247.568 394.543 247.576 394.551 247.584 394.56C247.601 394.593 247.626 394.635 247.643 394.669C247.685 394.744 247.719 394.82 247.752 394.896C247.786 394.971 247.82 395.047 247.853 395.122C247.853 395.139 247.87 395.156 247.878 395.173C247.878 395.198 247.895 395.215 247.904 395.24C247.946 395.349 247.988 395.458 248.03 395.576C248.055 395.643 248.072 395.71 248.097 395.777C248.097 395.786 248.097 395.794 248.105 395.811C248.114 395.828 248.105 395.828 248.114 395.845C248.164 396.004 248.197 396.164 248.239 396.323C248.248 396.365 248.256 396.407 248.273 396.449C248.273 396.483 248.281 396.516 248.29 396.542C248.374 396.961 248.424 397.398 248.424 397.852C248.424 397.852 248.424 397.852 248.424 397.86C248.424 397.86 248.424 397.86 248.424 397.868C248.424 398.33 248.374 398.784 248.29 399.229C248.29 399.237 248.29 399.254 248.29 399.263C248.281 399.305 248.265 399.355 248.256 399.397C248.223 399.556 248.181 399.716 248.13 399.876C248.13 399.884 248.13 399.901 248.122 399.909C248.122 399.909 248.122 399.926 248.114 399.934C248.088 400.002 248.072 400.077 248.046 400.144C248.004 400.254 247.971 400.371 247.92 400.48C247.912 400.505 247.904 400.522 247.887 400.547C247.887 400.556 247.878 400.573 247.87 400.589C247.836 400.665 247.803 400.741 247.769 400.816C247.736 400.892 247.694 400.967 247.66 401.051C247.643 401.085 247.618 401.127 247.601 401.161C247.601 401.161 247.593 401.177 247.593 401.186C247.551 401.27 247.5 401.354 247.45 401.429C247.416 401.48 247.391 401.53 247.358 401.58C247.324 401.631 247.291 401.681 247.257 401.732C247.257 401.732 247.257 401.74 247.249 401.748C247.198 401.824 247.148 401.908 247.089 401.984C247.064 402.017 247.039 402.051 247.013 402.084C246.963 402.143 246.913 402.202 246.862 402.261C246.862 402.261 246.854 402.277 246.845 402.286C246.795 402.353 246.736 402.42 246.677 402.487C246.669 402.496 246.661 402.513 246.652 402.521L259.753 415.622C260.114 415.362 260.551 415.211 261.03 415.211C262.256 415.211 263.247 416.202 263.247 417.428C263.247 417.906 263.087 418.343 262.835 418.704L298.846 454.715C299.208 454.455 299.653 454.304 300.131 454.304C300.173 454.304 300.215 454.312 300.257 454.312L305.162 432.217C304.356 431.889 303.793 431.091 303.793 430.168C303.793 429.68 303.952 429.244 304.213 428.883L288.685 413.355C288.324 413.615 287.879 413.774 287.4 413.774C286.174 413.774 285.183 412.783 285.183 411.557C285.183 410.331 286.174 409.34 287.4 409.34C288.626 409.34 289.617 410.331 289.617 411.557C289.617 412.036 289.457 412.473 289.205 412.834L304.734 428.362C305.095 428.11 305.531 427.95 306.01 427.95C307.236 427.95 308.219 428.941 308.227 430.168C308.227 431.394 307.236 432.385 306.01 432.385C305.976 432.385 305.943 432.376 305.901 432.376L300.971 454.463C301.786 454.791 302.357 455.589 302.357 456.521C302.357 456.999 302.206 457.436 301.945 457.806L315.046 470.907C316.281 469.798 317.902 469.118 319.691 469.118C323.528 469.118 326.644 472.234 326.644 476.072C326.644 479.91 323.528 483.025 319.691 483.025C315.853 483.025 312.737 479.91 312.737 476.072C312.737 474.283 313.417 472.662 314.526 471.427L301.425 458.326C301.064 458.587 300.618 458.738 300.14 458.738C298.914 458.738 297.923 457.747 297.923 456.521C297.923 456.042 298.082 455.605 298.334 455.236L262.332 419.225C261.97 419.485 261.525 419.645 261.047 419.645C261.005 419.645 260.971 419.636 260.929 419.636L256.025 441.732C256.831 442.059 257.393 442.857 257.393 443.781C257.393 444.26 257.234 444.705 256.974 445.074L272.502 460.602C272.863 460.342 273.308 460.182 273.787 460.182C275.013 460.182 276.004 461.173 276.004 462.399C276.004 463.626 275.013 464.617 273.787 464.617C272.56 464.617 271.569 463.626 271.569 462.399C271.569 461.921 271.729 461.484 271.981 461.123L256.453 445.595C256.092 445.855 255.655 446.006 255.176 446.006C253.959 446.006 252.959 445.015 252.959 443.789C252.959 442.563 253.95 441.572 255.176 441.572C255.21 441.572 255.252 441.581 255.286 441.581L260.215 419.494C259.401 419.166 258.821 418.377 258.821 417.444C258.821 416.966 258.981 416.521 259.241 416.16L246.14 403.059C246.14 403.059 246.123 403.075 246.115 403.084C245.98 403.201 245.838 403.319 245.695 403.428C245.67 403.445 245.644 403.47 245.619 403.487C245.477 403.588 245.334 403.688 245.191 403.781C245.157 403.806 245.115 403.823 245.082 403.848C244.939 403.932 244.796 404.016 244.654 404.091C244.603 404.117 244.544 404.142 244.494 404.167C244.36 404.234 244.225 404.293 244.082 404.352C244.007 404.377 243.931 404.411 243.856 404.436C243.73 404.478 243.612 404.528 243.478 404.562C243.377 404.595 243.268 404.612 243.167 404.646C243.058 404.671 242.957 404.705 242.848 404.721C242.705 404.747 242.562 404.763 242.42 404.789C242.344 404.797 242.26 404.814 242.184 404.822C241.958 404.847 241.731 404.856 241.496 404.856C241.269 404.856 241.034 404.847 240.807 404.822C240.723 404.822 240.648 404.797 240.572 404.789C240.429 404.772 240.286 404.755 240.144 404.721C240.035 404.696 239.934 404.671 239.825 404.646C239.724 404.621 239.615 404.595 239.514 404.57C239.388 404.528 239.262 404.486 239.144 404.444C239.069 404.419 238.993 404.394 238.918 404.36C238.783 404.301 238.649 404.243 238.514 404.175C238.456 404.15 238.405 404.125 238.347 404.091C238.204 404.016 238.069 403.94 237.927 403.856C237.885 403.831 237.851 403.806 237.809 403.789C237.666 403.697 237.524 403.604 237.389 403.495C237.364 403.47 237.33 403.453 237.305 403.428C237.162 403.319 237.028 403.21 236.902 403.092C236.894 403.084 236.877 403.075 236.868 403.067L223.767 416.168C224.028 416.529 224.179 416.974 224.179 417.453C224.179 418.385 223.608 419.174 222.793 419.502L227.723 441.589C227.723 441.589 227.799 441.581 227.832 441.581C229.058 441.581 230.049 442.572 230.049 443.798C230.049 445.024 229.058 446.015 227.832 446.015C227.353 446.015 226.917 445.864 226.556 445.603L211.027 461.131C211.288 461.492 211.439 461.929 211.439 462.408C211.439 463.634 210.448 464.625 209.222 464.625C207.996 464.625 207.005 463.634 207.005 462.408C207.005 461.182 207.996 460.191 209.222 460.191C209.701 460.191 210.146 460.35 210.507 460.602L226.035 445.074C225.775 444.713 225.615 444.268 225.615 443.789C225.615 442.865 226.186 442.076 226.984 441.74L222.088 419.645C222.088 419.645 222.004 419.653 221.962 419.653C221.483 419.653 221.038 419.494 220.677 419.233L184.666 455.244C184.926 455.605 185.077 456.042 185.077 456.529C185.077 457.755 184.086 458.746 182.86 458.746C182.382 458.746 181.936 458.587 181.575 458.335L168.474 471.436C169.583 472.67 170.263 474.291 170.263 476.08C170.263 479.918 167.156 483.034 163.309 483.034C159.463 483.034 156.356 479.918 156.356 476.08C156.356 472.242 159.472 469.126 163.309 469.126C165.098 469.126 166.719 469.807 167.954 470.915L181.055 457.814C180.794 457.453 180.643 457.008 180.643 456.529C180.643 455.597 181.214 454.799 182.029 454.472L177.099 432.385C177.099 432.385 177.024 432.393 176.99 432.393C175.764 432.393 174.773 431.402 174.773 430.176C174.773 428.95 175.764 427.959 176.99 427.959C177.46 427.959 177.905 428.11 178.266 428.37L193.795 412.842C193.534 412.481 193.383 412.036 193.383 411.566C193.383 410.34 194.374 409.349 195.6 409.349C196.826 409.349 197.817 410.34 197.817 411.566C197.817 412.792 196.826 413.783 195.6 413.783C195.121 413.783 194.676 413.623 194.315 413.363L178.787 428.891C179.048 429.252 179.207 429.697 179.207 430.176C179.207 431.1 178.636 431.889 177.83 432.225L182.734 454.32C182.734 454.32 182.818 454.312 182.86 454.312C183.339 454.312 183.776 454.463 184.137 454.724L220.148 418.713C219.888 418.351 219.736 417.906 219.736 417.436C219.736 416.21 220.727 415.219 221.953 415.219C222.432 415.219 222.869 415.37 223.23 415.63L236.331 402.529C236.331 402.529 236.306 402.504 236.297 402.487C236.18 402.361 236.079 402.235 235.978 402.093C235.953 402.059 235.919 402.017 235.894 401.984C235.802 401.858 235.71 401.723 235.626 401.597C235.592 401.538 235.558 401.488 235.525 401.429C235.458 401.312 235.382 401.186 235.315 401.06C235.273 400.984 235.239 400.9 235.197 400.816C235.147 400.707 235.096 400.598 235.054 400.489C235.054 400.472 235.038 400.455 235.038 400.43C235.021 400.388 235.012 400.346 234.996 400.312C234.979 400.254 234.954 400.203 234.937 400.144C234.903 400.06 234.878 399.968 234.845 399.884C234.845 399.859 234.836 399.834 234.828 399.817C234.819 399.783 234.811 399.741 234.803 399.708C234.777 399.607 234.752 399.506 234.727 399.405C234.719 399.355 234.702 399.305 234.693 399.254C234.693 399.237 234.693 399.221 234.693 399.195C234.677 399.095 234.66 399.002 234.651 398.901C234.635 398.784 234.609 398.666 234.601 398.54C234.584 398.389 234.584 398.238 234.576 398.095C234.576 398.02 234.567 397.952 234.567 397.877C234.567 397.877 234.567 397.877 234.567 397.868C234.567 397.868 234.567 397.868 234.567 397.86C234.567 397.784 234.576 397.717 234.576 397.642C234.576 397.491 234.584 397.339 234.601 397.188C234.609 397.071 234.635 396.953 234.651 396.836C234.668 396.735 234.677 396.634 234.693 396.533C234.693 396.516 234.693 396.5 234.693 396.474C234.702 396.424 234.719 396.374 234.727 396.323C234.752 396.222 234.777 396.122 234.803 396.021C234.811 395.987 234.819 395.945 234.828 395.903C234.828 395.878 234.836 395.853 234.845 395.836C234.87 395.744 234.903 395.66 234.937 395.576C234.954 395.525 234.979 395.467 234.996 395.416C235.012 395.374 235.029 395.332 235.046 395.29C235.046 395.273 235.054 395.257 235.063 395.24C235.105 395.131 235.155 395.022 235.206 394.912C235.248 394.837 235.281 394.753 235.323 394.677C235.39 394.551 235.458 394.425 235.533 394.308C235.567 394.249 235.6 394.198 235.634 394.148C235.718 394.014 235.81 393.879 235.903 393.753C235.928 393.711 235.961 393.678 235.987 393.644C236.087 393.51 236.197 393.384 236.306 393.25C236.314 393.241 236.323 393.224 236.339 393.208L223.238 380.106C222.877 380.367 222.432 380.518 221.962 380.518C220.736 380.518 219.745 379.527 219.745 378.301C219.745 377.822 219.896 377.385 220.156 377.024L184.145 341.013C183.784 341.274 183.339 341.425 182.869 341.425C182.827 341.425 182.785 341.416 182.743 341.416L177.838 363.512C178.644 363.848 179.207 364.637 179.215 365.561C179.215 366.04 179.056 366.485 178.796 366.846L194.324 382.374C194.685 382.114 195.13 381.954 195.609 381.962C196.835 381.962 197.826 382.953 197.826 384.18C197.826 385.406 196.835 386.397 195.609 386.397C194.382 386.397 193.391 385.406 193.391 384.18C193.391 383.701 193.543 383.264 193.803 382.903L178.275 367.375C177.914 367.635 177.477 367.786 176.998 367.786C175.772 367.786 174.781 366.795 174.781 365.569C174.781 364.343 175.772 363.352 176.998 363.352C177.032 363.352 177.074 363.361 177.108 363.361L182.037 341.274C181.223 340.946 180.652 340.148 180.652 339.216C180.652 338.737 180.803 338.301 181.063 337.931L167.97 324.839C166.736 325.956 165.107 326.644 163.318 326.644C159.48 326.644 156.364 323.528 156.364 319.691C156.364 319.455 156.381 319.22 156.398 318.985C156.406 318.868 156.431 318.75 156.448 318.624C156.465 318.532 156.473 318.439 156.49 318.347C156.524 318.145 156.574 317.961 156.633 317.767C156.633 317.767 156.633 317.759 156.633 317.751C156.927 316.726 157.448 315.802 158.136 315.03L145.044 301.937C144.682 302.197 144.237 302.348 143.759 302.348C142.827 302.348 142.029 301.769 141.701 300.954L119.614 305.884C119.614 305.884 119.623 305.96 119.623 305.993C119.623 307.219 118.632 308.21 117.405 308.21C116.179 308.21 115.188 307.219 115.188 305.993C115.188 305.515 115.34 305.078 115.6 304.717L100.072 289.189C99.7107 289.449 99.274 289.6 98.7953 289.6C97.5691 289.6 96.5782 288.609 96.5782 287.383C96.5782 286.157 97.5691 285.166 98.7953 285.166C100.021 285.166 101.012 286.157 101.012 287.383C101.012 287.862 100.853 288.307 100.601 288.668L116.129 304.196C116.49 303.936 116.935 303.776 117.414 303.776C118.338 303.776 119.127 304.347 119.463 305.145L141.558 300.241C141.558 300.241 141.542 300.157 141.55 300.115C141.55 299.636 141.701 299.199 141.962 298.83L105.95 262.819C105.589 263.079 105.153 263.23 104.674 263.23C103.448 263.23 102.457 262.239 102.457 261.013C102.457 260.534 102.608 260.098 102.868 259.736L89.7673 246.635C88.5328 247.744 86.912 248.424 85.1316 248.424C84.275 248.424 83.4603 248.265 82.6961 247.979C81.8731 247.668 81.1341 247.215 80.4958 246.644L67.3948 259.745C67.6551 260.106 67.8063 260.551 67.8063 261.021C67.8063 262.248 66.8153 263.239 65.5892 263.239C65.1105 263.239 64.6738 263.087 64.3127 262.827L28.3016 298.838C28.5619 299.199 28.7131 299.644 28.7131 300.123C28.7131 300.165 28.7047 300.207 28.7047 300.249L50.7917 305.153C51.1276 304.347 51.9171 303.785 52.8409 303.785C53.3195 303.785 53.7646 303.944 54.1258 304.204L69.6539 288.676C69.3935 288.315 69.234 287.87 69.234 287.391C69.234 286.165 70.2249 285.174 71.4511 285.174C72.6772 285.174 73.6682 286.165 73.6682 287.391C73.6682 288.618 72.6772 289.609 71.4511 289.609C70.9724 289.609 70.5357 289.449 70.1745 289.197L54.6465 304.725C54.8984 305.086 55.058 305.523 55.058 306.002C55.058 307.228 54.067 308.219 52.8409 308.219C51.6147 308.219 50.6238 307.228 50.6238 306.002C50.6238 305.968 50.6322 305.934 50.6322 305.892L28.5452 300.963C28.2176 301.777 27.4198 302.348 26.4876 302.357C26.0089 302.357 25.5722 302.206 25.2111 301.945L12.1101 315.046C13.2186 316.281 13.8989 317.902 13.8989 319.691C13.8989 323.528 10.7916 326.644 6.94524 326.644C3.09891 326.644 5.76675e-06 323.52 5.76675e-06 319.682C5.76675e-06 315.844 3.1073 312.729 6.95363 312.729C8.74243 312.729 10.3633 313.409 11.5978 314.517L24.6988 301.416C24.4385 301.055 24.2873 300.61 24.2873 300.131C24.2873 298.905 25.2783 297.914 26.5044 297.914C26.9831 297.914 27.4282 298.065 27.7893 298.326L63.8004 262.315C63.54 261.954 63.3805 261.509 63.3805 261.03C63.3805 260.988 63.3889 260.946 63.3889 260.912L41.2935 256.008C40.9575 256.814 40.1681 257.377 39.2443 257.377C38.7656 257.377 38.3205 257.217 37.9594 256.957L22.4313 272.485C22.6917 272.846 22.8428 273.291 22.8428 273.77C22.8428 274.996 21.8519 275.987 20.6257 275.987C19.3996 275.987 18.4086 274.996 18.4086 273.77C18.4086 272.544 19.3996 271.553 20.6257 271.553C21.1044 271.553 21.5411 271.712 21.9023 271.964L37.4303 256.436C37.1784 256.075 37.0188 255.638 37.0188 255.16C37.0188 253.933 38.0098 252.942 39.2359 252.942C40.4621 252.942 41.453 253.933 41.453 255.16C41.453 255.193 41.4446 255.235 41.4446 255.269L63.5316 260.198C63.8592 259.384 64.657 258.813 65.5892 258.804C66.0679 258.804 66.513 258.964 66.8741 259.224L79.9751 246.123C78.8666 244.889 78.1863 243.268 78.1863 241.479C78.1863 239.69 78.8666 238.069 79.9751 236.835L66.8741 223.734C66.513 223.994 66.0679 224.145 65.5892 224.145C64.657 224.145 63.8676 223.574 63.5316 222.76L41.4446 227.689C41.4446 227.689 41.453 227.765 41.453 227.799C41.453 229.025 40.4621 230.016 39.2359 230.016C38.0098 230.016 37.0188 229.025 37.0188 227.799C37.0188 227.32 37.17 226.883 37.4303 226.522L21.9023 210.994C21.5411 211.254 21.096 211.405 20.6173 211.405C19.3912 211.405 18.4002 210.414 18.4002 209.188C18.4002 207.962 19.3912 206.971 20.6173 206.971C21.8435 206.971 22.8344 207.962 22.8344 209.188C22.8344 209.667 22.6749 210.112 22.4229 210.473L37.951 226.001C38.3121 225.741 38.7572 225.581 39.2359 225.581C40.1597 225.581 40.9491 226.152 41.2851 226.959L63.3805 222.054C63.3805 222.054 63.3721 221.979 63.3721 221.928C63.3721 221.45 63.5316 221.013 63.7836 220.652L27.7725 184.641C27.4114 184.901 26.9747 185.052 26.496 185.052C25.2699 185.052 24.2789 184.061 24.2789 182.835C24.2789 182.356 24.4385 181.92 24.6904 181.559L11.5894 168.458C10.3549 169.566 8.73403 170.246 6.94524 170.246C3.1073 170.246 -0.00839233 167.131 -0.00839233 163.293C-0.00839233 159.455 3.09891 156.339 6.94524 156.339C10.7832 156.339 13.8989 159.446 13.8989 163.293C13.8989 165.081 13.2186 166.702 12.1101 167.937L25.2111 181.038C25.5722 180.778 26.0173 180.618 26.496 180.618C27.4282 180.618 28.2176 181.197 28.5452 182.004L50.6322 177.074C50.6322 177.074 50.6238 176.998 50.6238 176.965C50.6238 175.739 51.6147 174.748 52.8409 174.748C54.067 174.748 55.058 175.739 55.058 176.965C55.058 177.443 54.9068 177.88 54.6465 178.241L70.1745 193.769C70.5357 193.509 70.9724 193.358 71.4511 193.358C72.6772 193.358 73.6682 194.349 73.6682 195.575C73.6682 196.801 72.6772 197.792 71.4511 197.792C70.2249 197.792 69.234 196.801 69.234 195.575C69.234 195.096 69.3851 194.651 69.6455 194.29L54.1174 178.762C53.7563 179.022 53.3111 179.182 52.8325 179.182C51.9087 179.182 51.1192 178.611 50.7833 177.813L28.6963 182.718C28.6963 182.718 28.7047 182.793 28.7047 182.843C28.7047 183.322 28.5452 183.767 28.2848 184.128L64.2959 220.139C64.657 219.879 65.1021 219.728 65.5808 219.728C66.8069 219.728 67.7979 220.719 67.7979 221.945C67.7979 222.424 67.6383 222.86 67.3864 223.23L80.4874 236.331C81.7219 235.222 83.3428 234.542 85.1232 234.542C86.912 234.542 88.5328 235.222 89.7673 236.331L102.868 223.23C102.608 222.869 102.457 222.424 102.457 221.945C102.457 220.719 103.448 219.728 104.674 219.728C105.153 219.728 105.589 219.888 105.959 220.139L141.97 184.128C141.71 183.767 141.55 183.322 141.55 182.843C141.55 182.801 141.558 182.76 141.558 182.718L119.463 177.813C119.135 178.619 118.338 179.182 117.414 179.182C116.935 179.182 116.49 179.022 116.129 178.762L100.601 194.29C100.861 194.651 101.012 195.096 101.012 195.575C101.012 196.801 100.021 197.792 98.7953 197.792C97.5691 197.792 96.5782 196.801 96.5782 195.575C96.5782 194.349 97.5691 193.358 98.7953 193.358C99.274 193.358 99.7107 193.509 100.072 193.769L115.6 178.241C115.348 177.88 115.188 177.443 115.188 176.965C115.188 175.739 116.179 174.748 117.405 174.748C118.632 174.748 119.623 175.739 119.623 176.965C119.623 176.998 119.614 177.04 119.614 177.074L141.701 182.004C142.029 181.189 142.827 180.618 143.759 180.618C144.237 180.618 144.682 180.778 145.044 181.038L158.145 167.937C157.036 166.702 156.356 165.081 156.356 163.293C156.356 163.049 156.373 162.806 156.398 162.57C156.751 159.06 159.707 156.314 163.309 156.314C165.098 156.314 166.719 156.994 167.954 158.103L181.055 145.002C180.794 144.641 180.643 144.195 180.643 143.717C180.643 142.785 181.214 141.995 182.029 141.659L177.099 119.572C177.099 119.572 177.024 119.581 176.99 119.581C175.764 119.581 174.773 118.59 174.773 117.363C174.773 116.137 175.764 115.146 176.99 115.146C177.469 115.146 177.905 115.298 178.266 115.558L193.795 100.03C193.534 99.6687 193.383 99.2236 193.383 98.7533C193.383 97.5272 194.374 96.5362 195.6 96.5362C196.826 96.5362 197.817 97.5272 197.817 98.7533C197.817 99.9794 196.826 100.97 195.609 100.97C195.13 100.97 194.685 100.811 194.324 100.55L178.796 116.079C179.056 116.44 179.215 116.885 179.215 117.363C179.215 118.287 178.653 119.077 177.847 119.413L182.743 141.508C182.743 141.508 182.827 141.5 182.869 141.5C183.347 141.5 183.792 141.659 184.154 141.92L220.165 105.908C219.904 105.547 219.753 105.102 219.753 104.624C219.753 103.397 220.744 102.406 221.97 102.406C222.449 102.406 222.894 102.566 223.255 102.818L236.339 89.7337C235.441 88.726 234.828 87.4578 234.635 86.0554C234.635 86.0554 234.635 86.0554 234.635 86.047C234.593 85.7362 234.559 85.4255 234.559 85.098C234.559 85.098 234.559 85.0896 234.559 85.0812C234.559 85.0728 234.559 85.0728 234.559 85.0644C234.559 84.7453 234.584 84.4261 234.635 84.1154C234.635 84.1154 234.635 84.1154 234.635 84.107C234.828 82.7045 235.441 81.4364 236.339 80.4286L223.255 67.3444C222.894 67.6047 222.449 67.7559 221.97 67.7559C220.744 67.7559 219.753 66.7649 219.753 65.5388C219.753 65.0601 219.913 64.615 220.165 64.2539L184.154 28.2428C183.792 28.5032 183.347 28.6627 182.869 28.6543C182.827 28.6543 182.785 28.6459 182.743 28.6459L177.847 50.7413C178.653 51.0689 179.215 51.8667 179.215 52.7905C179.215 53.2692 179.056 53.7143 178.796 54.0754L194.324 69.6035C194.685 69.3431 195.13 69.1836 195.609 69.1836C196.826 69.1836 197.817 70.1745 197.817 71.4007C197.817 72.6268 196.826 73.6178 195.6 73.6178C194.374 73.6178 193.383 72.6268 193.383 71.4007C193.383 70.922 193.534 70.4853 193.795 70.1242L178.266 54.5961C177.905 54.848 177.469 55.0076 176.99 55.0076C175.764 55.0076 174.773 54.0166 174.773 52.7905C174.773 51.5644 175.764 50.5734 176.99 50.5734C177.024 50.5734 177.066 50.5818 177.099 50.5818L182.029 28.4948C181.214 28.1672 180.643 27.3778 180.643 26.4456C180.643 25.9669 180.803 25.5218 181.055 25.1607L167.954 12.0597C166.719 13.1682 165.098 13.8485 163.309 13.8485C159.472 13.8485 156.356 10.7328 156.356 6.89485C156.356 3.05692 159.472 -0.0587769 163.309 -0.0587769C167.147 -0.0587769 170.263 3.05692 170.263 6.89485C170.263 8.68365 169.583 10.3045 168.474 11.539L181.575 24.64C181.936 24.3797 182.373 24.2285 182.852 24.2285C184.078 24.2285 185.069 25.2195 185.069 26.4456C185.069 26.9243 184.918 27.361 184.657 27.7221L220.669 63.7332C221.03 63.4729 221.466 63.3217 221.945 63.3217C221.987 63.3217 222.029 63.3301 222.063 63.3385L226.967 41.2431C226.161 40.9156 225.598 40.1177 225.598 39.1939C225.598 38.7153 225.758 38.2702 226.018 37.909L210.49 22.3809C210.129 22.6413 209.684 22.7925 209.205 22.7925C207.979 22.7925 206.988 21.8015 206.988 20.5754C206.988 19.3492 207.979 18.3583 209.205 18.3583C210.431 18.3583 211.422 19.3492 211.422 20.5754C211.422 21.0541 211.271 21.4908 211.011 21.8519L226.539 37.38C226.9 37.128 227.337 36.9685 227.815 36.9685C229.041 36.9685 230.032 37.9594 230.032 39.1856C230.032 40.4117 229.041 41.4026 227.815 41.4026C227.773 41.4026 227.74 41.3943 227.706 41.3943L222.776 63.4813C223.591 63.8088 224.171 64.6066 224.171 65.5304C224.171 66.0091 224.011 66.4458 223.759 66.8153L236.843 79.8995C238.078 78.7826 239.707 78.1023 241.496 78.1023C243.293 78.1023 244.922 78.791 246.157 79.8995L259.241 66.8153C258.981 66.4542 258.829 66.0091 258.829 65.5304C258.829 64.5982 259.409 63.8088 260.224 63.4813L255.294 41.3943C255.294 41.3943 255.227 41.4026 255.185 41.4026C253.959 41.4026 252.968 40.4117 252.968 39.1856C252.968 37.9594 253.959 36.9685 255.185 36.9685C255.663 36.9685 256.1 37.1196 256.461 37.38L271.989 21.8519C271.729 21.4908 271.578 21.0541 271.578 20.5754C271.578 19.3492 272.569 18.3583 273.795 18.3583C275.021 18.3583 276.012 19.3492 276.012 20.5754C276.012 21.8015 275.021 22.7925 273.795 22.7925C273.316 22.7925 272.871 22.6329 272.51 22.3809L256.982 37.909C257.242 38.2702 257.402 38.7153 257.402 39.1939C257.402 40.1177 256.831 40.9072 256.033 41.2431L260.937 63.3301C260.937 63.3301 261.021 63.3217 261.063 63.3217C261.542 63.3217 261.979 63.4813 262.348 63.7332L298.359 27.7221C298.099 27.361 297.948 26.9243 297.948 26.4456C297.948 25.2195 298.939 24.2285 300.165 24.2285C300.644 24.2285 301.08 24.3797 301.441 24.64L314.543 11.539C313.434 10.3045 312.754 8.68365 312.754 6.89485C312.754 3.05692 315.869 -0.0587769 319.707 -0.0587769C323.545 -0.0587769 326.661 3.05692 326.661 6.89485C326.661 10.7328 323.545 13.8485 319.707 13.8485C317.919 13.8485 316.298 13.1682 315.063 12.0597L301.962 25.1607C302.222 25.5218 302.382 25.9669 302.382 26.4456C302.382 27.3778 301.811 28.1672 300.996 28.4948L305.926 50.5818C305.926 50.5818 306.002 50.5734 306.035 50.5734C307.261 50.5734 308.252 51.5644 308.252 52.7905C308.252 54.0166 307.261 55.0076 306.035 55.0076C305.557 55.0076 305.12 54.8564 304.759 54.5961L289.231 70.1242C289.491 70.4853 289.642 70.9304 289.642 71.4007C289.642 72.6268 288.651 73.6178 287.425 73.6178C286.199 73.6178 285.208 72.6268 285.208 71.4007C285.208 70.1745 286.199 69.1836 287.417 69.1836C287.895 69.1836 288.34 69.3431 288.702 69.5951L304.23 54.067C303.969 53.7059 303.81 53.2608 303.81 52.7821C303.81 51.8583 304.381 51.0689 305.179 50.7329L300.274 28.6375C300.274 28.6375 300.199 28.6459 300.157 28.6459C299.678 28.6459 299.233 28.4864 298.872 28.2344L262.861 64.2455C263.121 64.6066 263.272 65.0433 263.272 65.5304C263.272 66.7565 262.281 67.7475 261.055 67.7475C260.576 67.7475 260.14 67.5879 259.77 67.336L246.686 80.4202C247.786 81.6464 248.466 83.2672 248.466 85.0476C248.466 85.0476 248.466 85.056 248.466 85.0644C248.466 85.0728 248.466 85.0728 248.466 85.0812C248.466 86.8616 247.794 88.4824 246.686 89.7085L259.77 102.793C260.131 102.532 260.576 102.381 261.055 102.381C262.281 102.381 263.272 103.372 263.272 104.598C263.272 105.077 263.113 105.514 262.861 105.883L298.872 141.894C299.233 141.634 299.678 141.474 300.157 141.474C300.199 141.474 300.232 141.483 300.274 141.483L305.179 119.387C304.372 119.052 303.81 118.262 303.81 117.338C303.81 116.86 303.969 116.414 304.23 116.053L288.702 100.525C288.34 100.786 287.895 100.937 287.417 100.937C286.19 100.937 285.2 99.9458 285.208 98.7197C285.208 97.4936 286.199 96.5026 287.425 96.5026C288.651 96.5026 289.642 97.4936 289.642 98.7197C289.642 99.1984 289.483 99.6351 289.231 99.9962L304.759 115.524C305.12 115.272 305.557 115.113 306.035 115.113C307.261 115.113 308.252 116.104 308.252 117.33C308.252 118.556 307.261 119.547 306.035 119.547C306.002 119.547 305.968 119.539 305.926 119.539L300.996 141.626C301.811 141.953 302.382 142.743 302.382 143.675C302.382 144.153 302.222 144.599 301.962 144.96L315.063 158.061C315.063 158.061 315.147 157.993 315.181 157.96C315.24 157.91 315.29 157.868 315.349 157.826C315.483 157.716 315.626 157.607 315.769 157.515C315.785 157.506 315.802 157.49 315.819 157.481C316.928 156.725 318.263 156.28 319.707 156.28C323.545 156.28 326.661 159.396 326.661 163.234C326.661 164.796 326.14 166.232 325.267 167.391C325.25 167.408 325.233 167.433 325.225 167.45C325.124 167.576 325.023 167.702 324.914 167.828C324.889 167.853 324.872 167.878 324.855 167.903L337.956 181.004C338.318 180.744 338.763 180.584 339.241 180.593C340.174 180.593 340.963 181.164 341.29 181.978L363.377 177.049C363.377 177.049 363.369 176.973 363.369 176.94C363.369 175.713 364.36 174.723 365.586 174.723C366.812 174.723 367.803 175.713 367.803 176.94C367.803 177.418 367.652 177.855 367.392 178.216L382.92 193.744C383.281 193.484 383.718 193.333 384.196 193.333C385.422 193.333 386.413 194.324 386.413 195.55C386.413 196.776 385.422 197.767 384.196 197.767C382.97 197.767 381.979 196.776 381.988 195.55C381.988 195.071 382.147 194.626 382.399 194.265L366.871 178.737C366.51 178.997 366.065 179.157 365.586 179.157C364.662 179.157 363.873 178.586 363.537 177.788L341.442 182.692C341.442 182.734 341.45 182.776 341.45 182.818C341.45 183.297 341.29 183.742 341.039 184.103L377.05 220.114C377.411 219.854 377.847 219.703 378.326 219.703C379.552 219.703 380.543 220.694 380.543 221.92C380.543 222.399 380.384 222.844 380.132 223.205L393.233 236.306C393.233 236.306 393.25 236.297 393.25 236.289C393.317 236.23 393.384 236.18 393.451 236.121C393.468 236.104 393.485 236.096 393.501 236.079C393.569 236.029 393.619 235.978 393.686 235.928C393.703 235.911 393.728 235.903 393.745 235.886C393.812 235.835 393.888 235.785 393.963 235.735C393.997 235.71 394.031 235.693 394.064 235.668C394.106 235.634 394.156 235.6 394.207 235.575C394.24 235.558 394.266 235.542 394.299 235.516C394.375 235.474 394.45 235.432 394.518 235.39C394.56 235.365 394.602 235.34 394.644 235.315C394.677 235.298 394.702 235.281 394.736 235.264C394.778 235.239 394.828 235.222 394.87 235.197C394.954 235.155 395.038 235.122 395.122 235.088C395.156 235.071 395.189 235.054 395.223 235.046C395.248 235.038 395.273 235.021 395.307 235.012C395.374 234.987 395.441 234.962 395.509 234.937C395.584 234.912 395.66 234.887 395.744 234.861C395.786 234.845 395.819 234.836 395.861 234.819C395.878 234.819 395.895 234.811 395.903 234.803C395.996 234.777 396.088 234.752 396.18 234.727C396.281 234.702 396.382 234.677 396.483 234.651C396.483 234.651 396.5 234.651 396.508 234.651C396.516 234.651 396.533 234.651 396.542 234.651C396.668 234.626 396.794 234.609 396.919 234.593C397.012 234.576 397.096 234.567 397.188 234.551C397.188 234.551 397.188 234.551 397.197 234.551C397.197 234.551 397.197 234.551 397.205 234.551C397.398 234.534 397.591 234.525 397.793 234.517C397.826 234.517 397.852 234.517 397.885 234.517C397.885 234.517 397.885 234.517 397.894 234.517C397.894 234.517 397.894 234.517 397.902 234.517C397.936 234.517 397.969 234.517 397.994 234.517C398.196 234.517 398.389 234.525 398.582 234.551C398.683 234.559 398.775 234.576 398.868 234.593C398.994 234.609 399.12 234.626 399.246 234.651C399.254 234.651 399.271 234.651 399.279 234.651C399.389 234.677 399.489 234.702 399.59 234.727C399.682 234.752 399.775 234.769 399.867 234.803C399.884 234.803 399.901 234.811 399.918 234.819C399.951 234.828 399.985 234.845 400.027 234.853C400.111 234.878 400.195 234.903 400.27 234.937C400.337 234.962 400.405 234.979 400.472 235.012C400.497 235.021 400.522 235.038 400.556 235.046C400.589 235.063 400.623 235.071 400.648 235.088C400.732 235.122 400.816 235.164 400.9 235.197C400.942 235.222 400.993 235.239 401.043 235.264C401.077 235.281 401.11 235.306 401.144 235.323C401.186 235.348 401.219 235.365 401.261 235.39C401.337 235.432 401.412 235.474 401.488 235.516C401.522 235.533 401.547 235.55 401.58 235.575C401.631 235.6 401.673 235.642 401.715 235.668C401.748 235.693 401.782 235.718 401.816 235.735C401.883 235.785 401.958 235.827 402.026 235.877C402.042 235.886 402.059 235.903 402.084 235.919C402.143 235.961 402.193 236.012 402.252 236.062C402.277 236.079 402.303 236.104 402.328 236.121C402.395 236.171 402.454 236.222 402.521 236.281C402.521 236.281 402.529 236.289 402.538 236.297L415.639 223.196C415.379 222.835 415.227 222.39 415.227 221.911C415.227 220.685 416.218 219.694 417.444 219.694C417.923 219.694 418.36 219.854 418.729 220.106L454.74 184.095C454.48 183.734 454.32 183.289 454.329 182.81C454.329 182.768 454.337 182.726 454.337 182.684L432.25 177.779C431.914 178.586 431.133 179.148 430.201 179.148C429.722 179.148 429.277 178.989 428.916 178.728L413.388 194.257C413.648 194.618 413.808 195.063 413.8 195.541C413.8 196.768 412.809 197.758 411.583 197.758C410.356 197.758 409.365 196.768 409.365 195.541C409.365 194.315 410.356 193.324 411.583 193.324C412.061 193.324 412.498 193.475 412.859 193.736L428.387 178.208C428.127 177.847 427.976 177.41 427.976 176.931C427.976 175.705 428.967 174.714 430.193 174.714C431.419 174.714 432.41 175.705 432.41 176.931C432.41 176.965 432.401 177.007 432.401 177.04L454.488 181.97C454.816 181.155 455.605 180.584 456.538 180.584C457.016 180.584 457.461 180.744 457.823 180.996L470.924 167.895C469.815 166.66 469.135 165.04 469.135 163.251C469.135 159.413 472.25 156.297 476.088 156.297C479.926 156.297 483.042 159.413 483.042 163.251C483.042 167.089 479.926 170.204 476.088 170.204C474.3 170.204 472.679 169.524 471.444 168.416L458.343 181.517C458.604 181.878 458.755 182.314 458.755 182.793C458.755 184.019 457.764 185.01 456.538 185.01C456.059 185.01 455.622 184.859 455.261 184.599L419.25 220.61C419.51 220.971 419.662 221.408 419.662 221.886C419.662 221.928 419.653 221.97 419.653 222.012L441.74 226.917C442.076 226.111 442.865 225.548 443.789 225.548C444.268 225.548 444.713 225.707 445.083 225.968L460.611 210.44C460.35 210.079 460.191 209.633 460.199 209.155C460.199 207.929 461.19 206.938 462.416 206.938C463.642 206.938 464.633 207.929 464.633 209.155C464.633 210.381 463.642 211.372 462.416 211.372C461.938 211.372 461.501 211.221 461.14 210.96L445.612 226.488C445.864 226.85 446.023 227.286 446.023 227.765C446.023 228.991 445.032 229.982 443.806 229.982C442.588 229.982 441.589 228.991 441.589 227.765C441.589 227.723 441.597 227.689 441.597 227.656L419.51 222.726C419.183 223.541 418.385 224.12 417.461 224.112C416.983 224.112 416.546 223.961 416.176 223.7L403.075 236.801C403.075 236.801 403.084 236.818 403.092 236.826C403.218 236.961 403.327 237.104 403.445 237.246C403.462 237.272 403.478 237.297 403.495 237.322C403.596 237.456 403.697 237.599 403.789 237.75C403.814 237.792 403.84 237.826 403.865 237.868C403.949 238.002 404.024 238.137 404.1 238.279C404.133 238.338 404.159 238.405 404.192 238.464C404.251 238.59 404.31 238.716 404.36 238.842C404.394 238.934 404.427 239.027 404.461 239.111C404.503 239.22 404.537 239.329 404.57 239.438C404.604 239.564 404.637 239.699 404.671 239.825C404.688 239.9 404.713 239.984 404.73 240.068C404.772 240.261 404.797 240.446 404.814 240.648C404.814 240.673 404.822 240.698 404.822 240.732C404.847 240.967 404.856 241.202 404.856 241.437C404.856 241.639 404.847 241.832 404.822 242.025C404.822 242.05 404.822 242.075 404.822 242.1C404.805 242.277 404.78 242.445 404.747 242.613C404.747 242.663 404.738 242.705 404.721 242.756C404.688 242.932 404.646 243.108 404.595 243.276C404.587 243.31 404.579 243.343 404.57 243.377C404.52 243.562 404.453 243.738 404.385 243.923C404.385 243.94 404.369 243.956 404.369 243.973C404.293 244.166 404.209 244.351 404.117 244.528C403.907 244.956 403.63 245.351 403.336 245.72C403.294 245.779 403.252 245.829 403.201 245.888C403.151 245.947 403.109 246.014 403.059 246.064L416.16 259.165C416.521 258.905 416.966 258.746 417.444 258.746C418.377 258.746 419.174 259.325 419.494 260.14L441.581 255.21C441.581 255.21 441.572 255.143 441.572 255.101C441.572 253.883 442.563 252.884 443.789 252.884C445.015 252.884 446.006 253.875 446.006 255.101C446.006 255.579 445.855 256.016 445.595 256.377L461.123 271.905C461.484 271.645 461.921 271.494 462.399 271.494C463.626 271.494 464.617 272.485 464.617 273.711C464.617 274.937 463.626 275.928 462.399 275.928C461.182 275.928 460.182 274.937 460.182 273.711C460.182 273.232 460.342 272.787 460.602 272.426L445.074 256.898C444.713 257.158 444.268 257.318 443.789 257.318C442.865 257.318 442.076 256.747 441.74 255.949L419.645 260.853C419.645 260.853 419.653 260.929 419.653 260.971C419.653 261.45 419.494 261.895 419.233 262.256L455.244 298.267C455.605 298.007 456.051 297.855 456.529 297.855C457.755 297.855 458.746 298.846 458.746 300.073C458.746 300.551 458.587 300.988 458.335 301.357L471.436 314.459C472.662 313.35 474.291 312.67 476.08 312.67C479.918 312.67 483.034 315.785 483.034 319.623L482.992 319.682ZM392.678 246.14C392.628 246.081 392.586 246.022 392.544 245.964C392.494 245.905 392.443 245.838 392.393 245.77C392.158 245.468 391.948 245.157 391.763 244.821C391.763 244.821 391.763 244.813 391.755 244.805C391.721 244.737 391.671 244.67 391.637 244.603C391.545 244.418 391.461 244.234 391.385 244.049C391.385 244.032 391.368 244.015 391.368 243.998C391.301 243.822 391.234 243.637 391.184 243.453C391.175 243.419 391.167 243.385 391.158 243.352C391.108 243.175 391.066 243.007 391.032 242.831C391.024 242.781 391.016 242.739 391.016 242.688C390.99 242.52 390.957 242.352 390.94 242.176C390.94 242.151 390.94 242.126 390.94 242.1C390.923 241.907 390.906 241.706 390.906 241.513C390.906 241.277 390.923 241.042 390.94 240.807C390.94 240.782 390.948 240.757 390.948 240.723C390.974 240.53 390.999 240.337 391.041 240.144C391.058 240.06 391.083 239.984 391.1 239.9C391.133 239.774 391.158 239.64 391.2 239.514C391.234 239.405 391.276 239.296 391.31 239.186C391.343 239.094 391.377 239.002 391.41 238.918C391.461 238.792 391.52 238.666 391.587 238.54C391.612 238.481 391.645 238.414 391.679 238.355C391.755 238.212 391.83 238.078 391.914 237.943C391.939 237.901 391.965 237.868 391.99 237.826C392.082 237.675 392.183 237.532 392.284 237.398C392.301 237.372 392.317 237.347 392.334 237.322C392.443 237.179 392.561 237.036 392.687 236.902C392.687 236.902 392.695 236.885 392.704 236.877L379.603 223.776C379.241 224.036 378.805 224.187 378.318 224.187C377.385 224.187 376.596 223.616 376.269 222.802L354.182 227.731C354.182 227.731 354.19 227.799 354.19 227.84C354.19 229.067 353.199 230.058 351.973 230.058C350.747 230.058 349.756 229.067 349.756 227.84C349.756 227.362 349.907 226.925 350.167 226.564L334.639 211.036C334.278 211.296 333.841 211.447 333.363 211.447C332.137 211.447 331.146 210.456 331.146 209.23C331.146 208.004 332.137 207.013 333.363 207.013C334.589 207.013 335.58 208.004 335.58 209.23C335.58 209.709 335.429 210.154 335.168 210.515L350.696 226.043C351.057 225.783 351.503 225.623 351.99 225.623C352.913 225.623 353.703 226.194 354.039 226.992L376.126 222.088C376.126 222.088 376.117 222.004 376.117 221.962C376.117 221.483 376.277 221.038 376.529 220.685L340.518 184.674C340.157 184.935 339.72 185.086 339.241 185.086C338.015 185.086 337.033 184.095 337.024 182.869C337.024 182.39 337.175 181.953 337.436 181.592L324.335 168.491C324.335 168.491 324.251 168.558 324.209 168.6C324.158 168.642 324.108 168.684 324.058 168.726C323.915 168.844 323.772 168.953 323.621 169.054C323.612 169.054 323.596 169.071 323.587 169.079C322.479 169.835 321.143 170.288 319.699 170.288C315.861 170.288 312.745 167.173 312.745 163.335C312.745 161.764 313.274 160.32 314.148 159.152C314.148 159.152 314.156 159.136 314.165 159.127C314.274 158.984 314.383 158.85 314.509 158.716C314.526 158.699 314.543 158.674 314.559 158.657L301.458 145.556C301.097 145.816 300.66 145.967 300.182 145.967C298.956 145.967 297.965 144.976 297.965 143.75C297.965 143.272 298.116 142.835 298.376 142.474L262.365 106.463C262.004 106.723 261.559 106.874 261.08 106.874C261.038 106.874 260.996 106.866 260.954 106.866L256.05 128.953C256.856 129.28 257.419 130.078 257.419 131.002C257.419 131.489 257.259 131.926 256.999 132.287L272.527 147.815C272.888 147.555 273.333 147.403 273.812 147.403C275.038 147.403 276.029 148.394 276.029 149.621C276.029 150.847 275.038 151.838 273.812 151.838C272.586 151.838 271.595 150.847 271.595 149.621C271.595 149.142 271.746 148.705 272.006 148.344L256.478 132.816C256.117 133.068 255.68 133.227 255.202 133.227C253.984 133.227 252.984 132.237 252.984 131.01C252.984 129.784 253.975 128.793 255.202 128.793C255.244 128.793 255.277 128.802 255.311 128.802L260.24 106.715C259.426 106.387 258.846 105.589 258.846 104.666C258.846 104.187 259.006 103.75 259.258 103.381L246.174 90.2964C244.939 91.4133 243.31 92.0936 241.513 92.0936C239.715 92.0936 238.086 91.4049 236.86 90.2964L223.776 103.381C224.036 103.742 224.187 104.187 224.187 104.666C224.187 105.598 223.616 106.387 222.793 106.715L227.723 128.802C227.723 128.802 227.79 128.793 227.832 128.793C229.058 128.793 230.049 129.784 230.049 131.01C230.049 132.237 229.058 133.227 227.832 133.227C227.353 133.227 226.917 133.076 226.556 132.816L211.027 148.344C211.288 148.705 211.439 149.142 211.439 149.621C211.439 150.847 210.448 151.838 209.222 151.838C207.996 151.838 207.005 150.847 207.005 149.621C207.005 148.394 207.996 147.403 209.222 147.403C209.701 147.403 210.146 147.563 210.507 147.815L226.035 132.287C225.775 131.926 225.615 131.481 225.615 131.002C225.615 130.078 226.186 129.289 226.984 128.953L222.079 106.857C222.079 106.857 222.004 106.874 221.962 106.874C221.483 106.874 221.046 106.715 220.685 106.463L184.674 142.474C184.935 142.835 185.086 143.272 185.086 143.75C185.086 144.976 184.095 145.967 182.869 145.967C182.39 145.967 181.953 145.816 181.592 145.556L168.491 158.657C169.6 159.891 170.28 161.512 170.28 163.301C170.28 163.545 170.263 163.788 170.238 164.023C169.885 167.534 166.929 170.28 163.318 170.28C161.529 170.28 159.908 169.6 158.674 168.491L145.573 181.592C145.833 181.953 145.984 182.39 145.984 182.869C145.984 184.095 144.993 185.086 143.767 185.086C143.288 185.086 142.852 184.935 142.491 184.674L106.48 220.685C106.74 221.046 106.891 221.483 106.891 221.962C106.891 222.004 106.883 222.046 106.874 222.088L128.97 226.992C129.306 226.186 130.095 225.623 131.019 225.615C131.497 225.615 131.943 225.775 132.304 226.035L147.832 210.507C147.571 210.146 147.42 209.701 147.42 209.222C147.42 207.996 148.411 207.005 149.637 207.005C150.863 207.005 151.854 207.996 151.854 209.222C151.854 210.448 150.863 211.439 149.637 211.439C149.159 211.439 148.722 211.288 148.361 211.028L132.833 226.556C133.093 226.917 133.244 227.353 133.244 227.832C133.244 229.058 132.253 230.049 131.027 230.049C129.801 230.049 128.81 229.058 128.81 227.832C128.81 227.799 128.818 227.757 128.818 227.723L106.731 222.793C106.404 223.608 105.606 224.179 104.682 224.179C104.204 224.179 103.759 224.028 103.406 223.767L90.3048 236.868C91.4133 238.103 92.0936 239.724 92.0936 241.513C92.0936 243.301 91.4133 244.931 90.3048 246.157L103.406 259.258C103.767 258.997 104.212 258.838 104.691 258.838C105.623 258.838 106.412 259.417 106.748 260.232L128.835 255.302C128.835 255.302 128.827 255.227 128.827 255.193C128.827 253.967 129.818 252.976 131.044 252.976C132.27 252.976 133.261 253.967 133.261 255.193C133.261 255.672 133.11 256.109 132.85 256.47L148.378 271.998C148.739 271.737 149.175 271.586 149.654 271.586C150.88 271.586 151.871 272.577 151.871 273.803C151.871 275.029 150.88 276.02 149.654 276.02C148.428 276.02 147.437 275.029 147.437 273.803C147.437 273.325 147.597 272.88 147.849 272.518L132.32 256.99C131.959 257.251 131.514 257.41 131.036 257.41C130.112 257.41 129.322 256.839 128.986 256.041L106.891 260.946C106.891 260.946 106.899 261.021 106.899 261.063C106.899 261.542 106.74 261.987 106.48 262.348L142.491 298.359C142.852 298.099 143.297 297.948 143.775 297.948C145.002 297.948 145.993 298.939 145.993 300.165C145.993 300.644 145.833 301.089 145.581 301.45L158.674 314.543C159.908 313.426 161.537 312.745 163.326 312.745C167.164 312.745 170.28 315.861 170.28 319.699C170.28 319.934 170.263 320.169 170.246 320.404C170.238 320.514 170.213 320.623 170.196 320.732C170.179 320.833 170.171 320.942 170.146 321.043C170.112 321.236 170.062 321.421 170.011 321.605C170.011 321.614 170.011 321.63 170.011 321.639C169.717 322.663 169.197 323.587 168.508 324.352L181.601 337.444C181.962 337.184 182.398 337.033 182.885 337.033C184.112 337.033 185.103 338.024 185.103 339.25C185.103 339.728 184.951 340.173 184.691 340.535L220.702 376.546C221.063 376.285 221.508 376.134 221.987 376.134C222.029 376.134 222.071 376.143 222.113 376.143L227.009 354.047C226.203 353.72 225.64 352.922 225.64 351.998C225.64 351.519 225.8 351.074 226.06 350.713L210.532 335.185C210.171 335.445 209.726 335.597 209.247 335.597C208.021 335.597 207.03 334.606 207.03 333.379C207.03 332.153 208.021 331.162 209.247 331.162C210.473 331.162 211.464 332.153 211.464 333.379C211.464 333.858 211.313 334.295 211.053 334.656L226.581 350.184C226.942 349.932 227.379 349.773 227.857 349.773C229.083 349.773 230.074 350.764 230.074 351.99C230.074 353.216 229.083 354.207 227.857 354.207C227.815 354.207 227.782 354.207 227.748 354.198L222.818 376.285C223.633 376.613 224.204 377.411 224.204 378.343C224.204 378.822 224.045 379.267 223.793 379.628L236.894 392.729C236.894 392.729 236.919 392.712 236.927 392.704C237.062 392.586 237.196 392.477 237.33 392.368C237.356 392.342 237.389 392.326 237.414 392.301C237.549 392.2 237.691 392.099 237.834 392.015C237.876 391.99 237.91 391.965 237.952 391.948C238.086 391.864 238.229 391.788 238.372 391.713C238.431 391.687 238.481 391.662 238.54 391.637C238.674 391.57 238.808 391.511 238.943 391.452C239.018 391.419 239.094 391.394 239.17 391.368C239.296 391.326 239.413 391.276 239.539 391.242C239.64 391.209 239.749 391.184 239.85 391.167C239.959 391.142 240.06 391.108 240.169 391.091C240.312 391.066 240.454 391.049 240.597 391.024C240.673 391.016 240.748 390.999 240.832 390.99C241.059 390.965 241.286 390.957 241.521 390.957C241.748 390.957 241.983 390.965 242.21 390.99C242.285 390.99 242.361 391.016 242.445 391.024C242.588 391.041 242.73 391.058 242.873 391.091C242.982 391.116 243.091 391.142 243.192 391.167C243.293 391.192 243.402 391.217 243.503 391.242C243.629 391.284 243.755 391.326 243.881 391.368C243.956 391.394 244.032 391.419 244.108 391.452C244.25 391.511 244.385 391.57 244.519 391.637C244.57 391.662 244.628 391.687 244.679 391.713C244.821 391.788 244.964 391.864 245.107 391.956C245.141 391.981 245.183 391.998 245.216 392.023C245.367 392.116 245.51 392.217 245.644 392.317C245.67 392.334 245.695 392.359 245.72 392.376C245.863 392.485 245.997 392.603 246.14 392.72C246.14 392.72 246.157 392.737 246.165 392.746L259.266 379.645C259.006 379.283 258.846 378.838 258.846 378.36C258.846 377.427 259.426 376.638 260.24 376.311L255.311 354.224C255.311 354.224 255.235 354.232 255.202 354.232C253.975 354.232 252.984 353.241 252.984 352.015C252.984 350.789 253.975 349.798 255.202 349.798C255.68 349.798 256.117 349.949 256.478 350.209L272.006 334.681C271.754 334.32 271.595 333.883 271.595 333.405C271.595 332.179 272.586 331.188 273.812 331.188C275.038 331.188 276.029 332.179 276.029 333.405C276.029 334.631 275.038 335.622 273.812 335.622C273.333 335.622 272.896 335.462 272.527 335.21L256.999 350.738C257.259 351.099 257.419 351.545 257.419 352.023C257.419 352.947 256.848 353.736 256.05 354.072L260.954 376.168C260.954 376.168 261.03 376.159 261.072 376.159C261.55 376.159 261.996 376.319 262.357 376.571L298.359 340.56C298.099 340.199 297.948 339.754 297.948 339.275C297.948 338.049 298.939 337.058 300.165 337.058C300.644 337.058 301.08 337.217 301.45 337.469L314.526 324.393C313.417 323.159 312.737 321.538 312.737 319.749C312.737 317.826 313.518 316.079 314.786 314.82C316.046 313.56 317.784 312.771 319.716 312.771C321.505 312.771 323.125 313.451 324.36 314.559L337.436 301.483C337.175 301.122 337.024 300.677 337.024 300.199C337.024 298.972 338.015 297.981 339.241 297.981C339.72 297.981 340.157 298.141 340.526 298.393L376.529 262.382C376.269 262.021 376.117 261.576 376.117 261.097C376.117 261.055 376.126 261.021 376.126 260.979L354.03 256.075C353.694 256.881 352.905 257.444 351.981 257.444C351.503 257.444 351.057 257.284 350.696 257.024L335.168 272.552C335.429 272.913 335.58 273.35 335.58 273.837C335.58 275.063 334.589 276.054 333.363 276.054C332.137 276.054 331.146 275.063 331.146 273.837C331.146 272.611 332.137 271.62 333.363 271.62C333.841 271.62 334.278 271.771 334.639 272.031L350.167 256.503C349.915 256.142 349.756 255.705 349.756 255.227C349.756 254.001 350.747 253.01 351.973 253.01C353.199 253.01 354.19 254.001 354.19 255.227C354.19 255.269 354.19 255.302 354.182 255.336L376.269 260.266C376.596 259.451 377.385 258.88 378.318 258.871C378.796 258.871 379.241 259.031 379.603 259.291L392.704 246.19L392.678 246.14Z" fill="black"/>
<g clip-path="url(#clip0_0_1)">
<path d="M173 255.459V216.541H185.504C192.704 216.541 197.413 219.464 197.413 224.011C197.413 232.239 180.687 231.211 180.687 235.325C180.687 239.114 199.633 236.624 199.633 247.288C199.633 251.294 196.439 255.462 189.672 255.462H173V255.459ZM175.977 217.353V254.647H189.023C192.92 254.647 196.331 252.698 196.331 247.231C196.331 236.783 179.712 240.085 179.712 235.322C179.712 230.558 194.165 232.669 194.165 223.251C194.165 219.353 190.376 217.35 184.801 217.35H175.977V217.353Z" fill="black"/>
<path d="M204.775 216.541H207.752V255.462H204.775V216.541Z" fill="black"/>
<path d="M215.168 255.459H214.356V220.655C214.356 217.732 215.06 216 217.55 216C220.04 216 221.61 218.219 222.53 220.385L236.442 251.997C237.416 254.271 237.958 254.812 238.769 254.812C239.581 254.812 239.96 253.513 239.96 251.294V216.541H240.772V251.348C240.772 254.271 240.285 256.003 238.012 256.003C235.576 256.003 233.952 253.729 232.977 251.564L219.12 220.006C218.091 217.732 217.442 217.137 216.576 217.137C215.601 217.137 215.168 218.49 215.168 220.655V255.462V255.459Z" fill="black"/>
<path d="M248.188 255.459H247.376V220.655C247.376 217.732 248.08 216 250.57 216C253.06 216 254.63 218.219 255.55 220.385L269.462 251.997C270.436 254.271 270.978 254.812 271.79 254.812C272.602 254.812 272.98 253.513 272.98 251.294V216.541H273.792V251.348C273.792 254.271 273.305 256.003 271.032 256.003C268.596 256.003 266.972 253.729 265.998 251.564L252.14 220.006C251.111 217.732 250.462 217.137 249.596 217.137C248.621 217.137 248.188 218.49 248.188 220.655V255.462V255.459Z" fill="black"/>
<path d="M278.718 234.892H291.602V237.111H278.718V234.892Z" fill="black"/>
<path d="M278.718 240.188H291.602V242.407H278.718V240.188Z" fill="black"/>
<path d="M278.718 229.593H291.602V231.812H278.718V229.593Z" fill="black"/>
<path d="M319.912 216.541L307.895 234.134L321.428 255.462H317.909L305.784 236.353L292.847 255.462H291.872L305.297 235.595L293.171 216.541H296.69L307.408 233.43L318.938 216.541H319.912Z" fill="black"/>
</g>
<defs>
<clipPath id="clip0_0_1">
<rect width="148.428" height="40" fill="white" transform="translate(173 216)"/>
</clipPath>
</defs>
</svg>
