<svg width="149" height="40" viewBox="0 0 149 40" fill="none" xmlns="http://www.w3.org/2000/svg">
<g id="Layer_1" clip-path="url(#clip0_17_100)">
<path id="Vector" d="M0 39.4587V0.541321H12.5043C19.7038 0.541321 24.4132 3.46441 24.4132 8.01144C24.4132 16.2394 7.68664 15.2109 7.68664 19.3249C7.68664 23.1141 26.6326 20.624 26.6326 31.2879C26.6326 35.2936 23.4388 39.4617 16.6724 39.4617H0V39.4587ZM2.97722 1.35329V38.6467H16.0229C19.9203 38.6467 23.3306 36.698 23.3306 31.2307C23.3306 20.7834 6.71228 24.0854 6.71228 19.3219C6.71228 14.5583 21.1653 16.6694 21.1653 7.25059C21.1653 3.35314 17.3761 1.35028 11.8006 1.35028H2.97722V1.35329Z" fill="black"/>
<path id="Vector_2" d="M31.7751 0.541321H34.7523V39.4617H31.7751V0.541321Z" fill="black"/>
<path id="Vector_3" d="M42.1683 39.4587H41.3563V4.65529C41.3563 1.7322 42.06 0 44.55 0C47.0401 0 48.6099 2.21938 49.5301 4.38463L63.4419 35.9973C64.4162 38.2708 64.9575 38.8121 65.7695 38.8121C66.5815 38.8121 66.9604 37.513 66.9604 35.2936V0.541313H67.7724V35.3477C67.7724 38.2708 67.2852 40.003 65.0117 40.003C62.5757 40.003 60.9518 37.7295 59.9774 35.5642L46.1198 4.00571C45.0913 1.7322 44.4418 1.13676 43.5757 1.13676C42.6013 1.13676 42.1683 2.49004 42.1683 4.65529V39.4617V39.4587Z" fill="black"/>
<path id="Vector_4" d="M75.1883 39.4587H74.3764V4.65529C74.3764 1.7322 75.0801 0 77.5701 0C80.0602 0 81.63 2.21938 82.5502 4.38463L96.4619 35.9973C97.4363 38.2708 97.9776 38.8121 98.7896 38.8121C99.6015 38.8121 99.9805 37.513 99.9805 35.2936V0.541313H100.792V35.3477C100.792 38.2708 100.305 40.003 98.0317 40.003C95.5958 40.003 93.9719 37.7295 92.9975 35.5642L79.1399 4.00571C78.1114 1.7322 77.4619 1.13676 76.5958 1.13676C75.6214 1.13676 75.1883 2.49004 75.1883 4.65529V39.4617V39.4587Z" fill="black"/>
<path id="Vector_5" d="M105.718 18.8918H118.602V21.1112H105.718V18.8918Z" fill="black"/>
<path id="Vector_6" d="M105.718 24.1877H118.602V26.407H105.718V24.1877Z" fill="black"/>
<path id="Vector_7" d="M105.718 13.593H118.602V15.8123H105.718V13.593Z" fill="black"/>
<path id="Vector_8" d="M146.912 0.541321L134.895 18.134L148.428 39.4617H144.909L132.784 20.3534L119.847 39.4617H118.872L132.297 19.5955L120.171 0.541321H123.69L134.408 17.4303L145.938 0.541321H146.912Z" fill="black"/>
</g>
<defs>
<clipPath id="clip0_17_100">
<rect width="148.428" height="40" fill="white"/>
</clipPath>
</defs>
</svg>
